<svg id="svg" version="1.1" xmlns="http://www.w3.org/2000/svg" xmlns:xlink="http://www.w3.org/1999/xlink" width="400" height="93.99538106235566" viewBox="0, 0, 400,93.99538106235566"><g id="svgg"><path id="path0" d="M47.250 16.014 C 46.242 16.099,44.967 16.275,44.417 16.405 C 43.867 16.535,43.154 16.692,42.833 16.754 C 41.417 17.026,37.765 18.375,36.211 19.198 C 35.173 19.749,33.021 20.997,32.750 21.206 C 26.659 25.904,22.913 30.693,21.091 36.111 C 20.849 36.829,20.585 37.567,20.503 37.750 C 18.839 41.470,18.833 52.114,20.493 56.083 C 20.570 56.267,20.801 56.904,21.006 57.500 C 23.001 63.273,26.894 68.290,32.750 72.632 C 33.677 73.319,36.804 74.971,38.333 75.582 C 38.929 75.820,39.567 76.081,39.750 76.162 C 40.321 76.413,42.218 76.968,42.917 77.087 C 43.283 77.150,43.958 77.302,44.417 77.426 C 46.714 78.047,53.471 78.046,56.000 77.425 C 56.504 77.301,57.217 77.149,57.583 77.087 C 67.769 75.361,77.584 65.511,80.503 54.083 C 81.426 50.469,81.534 42.175,80.679 40.512 C 80.605 40.368,80.492 39.950,80.428 39.583 C 80.315 38.933,79.782 37.172,79.242 35.667 C 74.769 23.182,61.183 14.836,47.250 16.014 M67.766 31.851 C 68.123 32.247,68.154 33.465,67.840 34.819 C 67.742 35.239,67.553 36.221,67.419 37.000 C 67.198 38.285,66.922 39.713,66.243 43.083 C 66.114 43.725,65.931 44.700,65.837 45.250 C 65.743 45.800,65.555 46.737,65.420 47.333 C 65.285 47.929,65.019 49.167,64.829 50.083 C 64.044 53.872,63.486 56.449,62.983 58.606 C 62.809 59.352,62.667 60.092,62.667 60.250 C 62.667 61.253,61.470 62.333,60.359 62.333 C 59.653 62.333,59.666 62.342,56.167 59.633 C 54.412 58.275,54.297 58.187,53.862 57.868 C 53.648 57.711,53.012 57.230,52.448 56.798 L 51.422 56.012 51.003 56.398 C 50.772 56.610,49.683 57.627,48.583 58.656 C 45.456 61.584,45.201 61.533,44.071 57.750 C 43.825 56.925,43.406 55.575,43.140 54.750 C 42.522 52.829,42.092 51.429,41.855 50.565 L 41.667 49.879 37.527 48.509 C 32.967 47.000,32.433 46.714,32.433 45.781 C 32.433 44.911,32.774 44.642,35.218 43.579 C 36.427 43.053,37.492 42.569,37.583 42.502 C 37.675 42.436,37.975 42.302,38.250 42.204 C 38.781 42.016,42.575 40.466,43.417 40.094 C 43.692 39.972,44.798 39.526,45.875 39.103 C 46.952 38.680,48.684 37.996,49.725 37.583 C 50.765 37.171,51.664 36.833,51.723 36.833 C 51.827 36.833,54.898 35.674,55.917 35.251 C 56.192 35.137,58.029 34.464,60.000 33.755 C 61.971 33.047,63.696 32.423,63.833 32.368 C 66.210 31.431,67.261 31.293,67.766 31.851 " stroke="none" fill="#2ca4dc" fill-rule="evenodd"></path><path id="path1" d="M45.670 14.281 C 45.259 14.323,44.847 14.417,44.753 14.491 C 44.660 14.565,44.077 14.679,43.458 14.743 C 42.840 14.807,42.333 14.919,42.333 14.991 C 42.333 15.063,41.771 15.222,41.083 15.344 C 40.396 15.466,39.833 15.618,39.833 15.681 C 39.833 15.745,39.571 15.845,39.250 15.906 C 38.929 15.966,38.667 16.075,38.667 16.148 C 38.667 16.220,38.254 16.379,37.750 16.500 C 37.246 16.621,36.833 16.771,36.833 16.833 C 36.833 16.896,36.533 17.046,36.167 17.167 C 35.800 17.288,35.500 17.444,35.500 17.513 C 35.500 17.583,35.275 17.690,35.000 17.750 C 34.725 17.810,34.500 17.914,34.500 17.980 C 34.500 18.046,34.237 18.195,33.917 18.311 C 33.596 18.427,33.333 18.584,33.333 18.659 C 33.333 18.735,33.146 18.844,32.917 18.902 C 32.688 18.959,32.500 19.071,32.500 19.150 C 32.500 19.228,32.275 19.386,32.000 19.500 C 31.725 19.614,31.500 19.773,31.500 19.854 C 31.500 19.934,31.388 20.000,31.251 20.000 C 31.115 20.000,30.909 20.150,30.795 20.333 C 30.680 20.517,30.505 20.667,30.406 20.667 C 30.306 20.667,30.049 20.854,29.833 21.083 C 29.618 21.313,29.384 21.500,29.312 21.500 C 29.115 21.500,24.833 25.780,24.833 25.977 C 24.833 26.072,24.735 26.210,24.616 26.283 C 24.496 26.357,24.177 26.717,23.907 27.083 C 23.638 27.450,23.359 27.825,23.289 27.917 C 22.901 28.425,22.333 29.370,22.333 29.507 C 22.333 29.595,22.277 29.667,22.207 29.667 C 22.138 29.667,21.974 29.910,21.843 30.208 C 21.711 30.506,21.505 30.849,21.385 30.970 C 21.265 31.091,21.167 31.298,21.167 31.429 C 21.167 31.560,21.104 31.667,21.026 31.667 C 20.949 31.667,20.793 31.979,20.678 32.360 C 20.564 32.741,20.365 33.159,20.235 33.288 C 20.106 33.418,20.000 33.664,20.000 33.835 C 20.000 34.007,19.925 34.193,19.833 34.250 C 19.742 34.307,19.583 34.686,19.480 35.093 C 19.378 35.500,19.234 35.833,19.162 35.833 C 19.089 35.833,18.942 36.358,18.833 37.000 C 18.725 37.642,18.575 38.167,18.501 38.167 C 18.426 38.167,18.312 38.560,18.247 39.042 C 18.182 39.523,18.071 39.992,17.999 40.083 C 17.362 40.898,17.357 52.779,17.993 53.583 C 18.066 53.675,18.178 54.181,18.241 54.708 C 18.305 55.235,18.420 55.667,18.497 55.667 C 18.574 55.667,18.725 56.192,18.833 56.833 C 18.942 57.475,19.089 58.000,19.162 58.000 C 19.234 58.000,19.378 58.333,19.480 58.740 C 19.583 59.147,19.742 59.527,19.833 59.583 C 19.925 59.640,20.000 59.827,20.000 59.998 C 20.000 60.169,20.106 60.415,20.235 60.545 C 20.365 60.674,20.564 61.092,20.678 61.473 C 20.793 61.855,20.949 62.167,21.026 62.167 C 21.104 62.167,21.167 62.274,21.167 62.405 C 21.167 62.536,21.265 62.742,21.385 62.863 C 21.505 62.984,21.711 63.327,21.843 63.625 C 21.974 63.923,22.138 64.167,22.207 64.167 C 22.277 64.167,22.333 64.238,22.333 64.326 C 22.333 64.463,22.901 65.408,23.289 65.917 C 23.359 66.009,23.638 66.384,23.907 66.750 C 24.177 67.117,24.496 67.477,24.616 67.550 C 24.735 67.623,24.833 67.760,24.833 67.853 C 24.833 68.055,29.102 72.333,29.303 72.333 C 29.380 72.333,29.618 72.521,29.833 72.750 C 30.049 72.979,30.306 73.167,30.406 73.167 C 30.505 73.167,30.680 73.317,30.795 73.500 C 30.909 73.683,31.115 73.833,31.251 73.833 C 31.388 73.833,31.500 73.899,31.500 73.980 C 31.500 74.060,31.725 74.219,32.000 74.333 C 32.275 74.447,32.500 74.605,32.500 74.684 C 32.500 74.763,32.688 74.874,32.917 74.932 C 33.146 74.989,33.333 75.098,33.333 75.174 C 33.333 75.250,33.596 75.407,33.917 75.523 C 34.237 75.639,34.500 75.788,34.500 75.854 C 34.500 75.920,34.725 76.023,35.000 76.083 C 35.275 76.144,35.500 76.250,35.500 76.320 C 35.500 76.390,35.800 76.546,36.167 76.667 C 36.533 76.788,36.833 76.938,36.833 77.000 C 36.833 77.062,37.246 77.212,37.750 77.333 C 38.254 77.454,38.667 77.613,38.667 77.686 C 38.667 77.759,38.929 77.867,39.250 77.928 C 39.571 77.988,39.833 78.089,39.833 78.152 C 39.833 78.215,40.396 78.367,41.083 78.489 C 41.771 78.611,42.333 78.767,42.333 78.836 C 42.333 78.905,42.840 79.015,43.458 79.080 C 44.077 79.146,44.689 79.286,44.817 79.391 C 45.145 79.660,55.351 79.663,55.683 79.394 C 55.811 79.289,56.385 79.151,56.958 79.086 C 57.531 79.020,58.000 78.916,58.000 78.853 C 58.000 78.790,58.544 78.640,59.208 78.518 C 59.873 78.396,60.492 78.239,60.583 78.168 C 60.675 78.097,60.994 77.986,61.292 77.923 C 61.590 77.859,61.833 77.747,61.833 77.674 C 61.833 77.601,62.060 77.496,62.336 77.441 C 62.613 77.386,63.252 77.151,63.758 76.920 C 64.263 76.689,64.749 76.500,64.838 76.500 C 64.927 76.500,65.000 76.431,65.000 76.347 C 65.000 76.262,65.225 76.144,65.500 76.083 C 65.775 76.023,66.000 75.910,66.000 75.831 C 66.000 75.753,66.167 75.636,66.372 75.571 C 66.770 75.445,67.716 74.825,67.802 74.634 C 67.831 74.571,68.113 74.434,68.427 74.330 C 68.742 74.226,69.000 74.070,69.000 73.983 C 69.000 73.896,69.188 73.754,69.417 73.667 C 69.646 73.580,69.833 73.431,69.833 73.337 C 69.833 73.244,69.942 73.167,70.075 73.167 C 70.208 73.167,70.377 73.072,70.450 72.957 C 70.523 72.842,70.879 72.528,71.240 72.258 C 72.001 71.690,75.667 68.042,75.667 67.853 C 75.667 67.782,75.854 67.549,76.083 67.333 C 76.313 67.118,76.500 66.850,76.500 66.739 C 76.500 66.627,76.612 66.492,76.750 66.440 C 76.887 66.387,77.000 66.266,77.000 66.172 C 77.000 66.077,77.150 65.850,77.333 65.667 C 77.517 65.483,77.667 65.221,77.667 65.083 C 77.667 64.946,77.733 64.833,77.813 64.833 C 77.894 64.833,78.058 64.590,78.178 64.292 C 78.299 63.994,78.495 63.690,78.615 63.617 C 78.735 63.543,78.833 63.375,78.833 63.242 C 78.833 63.109,78.905 63.000,78.993 63.000 C 79.081 63.000,79.243 62.700,79.353 62.333 C 79.463 61.967,79.610 61.667,79.680 61.667 C 79.750 61.667,79.856 61.442,79.917 61.167 C 79.977 60.892,80.094 60.667,80.178 60.667 C 80.261 60.667,80.414 60.329,80.517 59.917 C 80.621 59.504,80.760 59.167,80.827 59.167 C 80.893 59.167,81.046 58.754,81.167 58.250 C 81.288 57.746,81.440 57.333,81.505 57.333 C 81.570 57.333,81.673 56.958,81.734 56.500 C 81.795 56.042,81.906 55.667,81.982 55.667 C 82.057 55.667,82.216 54.973,82.336 54.125 C 82.456 53.277,82.636 52.530,82.735 52.464 C 82.860 52.383,82.917 50.644,82.917 46.917 C 82.917 43.189,82.860 41.451,82.735 41.369 C 82.636 41.304,82.456 40.556,82.336 39.708 C 82.216 38.860,82.057 38.167,81.982 38.167 C 81.906 38.167,81.795 37.792,81.734 37.333 C 81.673 36.875,81.570 36.500,81.505 36.500 C 81.440 36.500,81.288 36.087,81.167 35.583 C 81.046 35.079,80.893 34.667,80.827 34.667 C 80.760 34.667,80.621 34.329,80.517 33.917 C 80.414 33.504,80.261 33.167,80.178 33.167 C 80.094 33.167,79.977 32.942,79.917 32.667 C 79.856 32.392,79.750 32.167,79.680 32.167 C 79.610 32.167,79.463 31.867,79.353 31.500 C 79.243 31.133,79.081 30.833,78.993 30.833 C 78.905 30.833,78.833 30.718,78.833 30.578 C 78.833 30.438,78.725 30.281,78.594 30.231 C 78.462 30.180,78.305 29.915,78.244 29.641 C 78.184 29.368,78.037 29.106,77.916 29.060 C 77.795 29.014,77.655 28.813,77.605 28.613 C 77.554 28.413,77.284 28.002,77.006 27.698 C 76.728 27.394,76.500 27.089,76.500 27.019 C 76.500 26.949,76.313 26.715,76.083 26.500 C 75.854 26.285,75.667 26.053,75.667 25.986 C 75.667 25.806,71.926 22.086,71.203 21.547 C 70.862 21.293,70.523 20.991,70.450 20.876 C 70.377 20.761,70.245 20.667,70.158 20.667 C 70.071 20.667,69.859 20.535,69.686 20.375 C 69.124 19.852,68.603 19.500,68.391 19.500 C 68.277 19.500,68.123 19.406,68.050 19.292 C 67.901 19.059,67.157 18.605,66.458 18.321 C 66.206 18.218,66.000 18.072,66.000 17.997 C 66.000 17.922,65.775 17.810,65.500 17.750 C 65.225 17.690,65.000 17.583,65.000 17.513 C 65.000 17.444,64.700 17.288,64.333 17.167 C 63.967 17.046,63.667 16.896,63.667 16.833 C 63.667 16.771,63.254 16.621,62.750 16.500 C 62.246 16.379,61.833 16.223,61.833 16.153 C 61.833 16.084,61.590 15.974,61.292 15.911 C 60.994 15.847,60.675 15.737,60.583 15.666 C 60.492 15.595,59.873 15.437,59.208 15.315 C 58.544 15.194,58.000 15.043,58.000 14.980 C 58.000 14.917,57.531 14.813,56.958 14.748 C 56.385 14.683,55.813 14.545,55.686 14.442 C 55.453 14.253,47.260 14.122,45.670 14.281 M55.333 15.993 C 55.746 16.088,56.571 16.272,57.167 16.401 C 58.464 16.683,59.957 17.099,60.417 17.308 C 60.600 17.392,61.313 17.674,62.000 17.936 C 78.787 24.331,86.444 44.824,78.152 61.167 C 74.077 69.198,65.734 75.689,57.250 77.429 C 56.608 77.561,55.671 77.760,55.167 77.872 C 53.928 78.146,46.572 78.146,45.333 77.872 C 44.829 77.760,43.892 77.562,43.250 77.431 C 36.609 76.080,29.926 71.758,25.165 65.734 C 23.478 63.600,20.751 58.276,20.412 56.456 C 20.348 56.112,20.236 55.793,20.162 55.747 C 20.089 55.702,19.978 55.347,19.915 54.957 C 19.852 54.568,19.700 53.913,19.576 53.500 C 18.023 48.317,19.187 38.603,21.993 33.321 C 22.070 33.177,22.342 32.652,22.599 32.155 C 24.748 27.986,28.749 23.611,32.996 20.788 C 36.873 18.211,42.204 16.267,46.750 15.773 C 47.931 15.645,54.559 15.815,55.333 15.993 M101.408 27.797 C 100.667 28.417,100.057 33.040,100.667 33.417 C 100.758 33.473,100.835 33.721,100.836 33.968 C 100.838 34.233,101.019 34.587,101.278 34.833 L 101.716 35.250 106.105 35.302 L 110.494 35.353 110.539 48.052 L 110.583 60.750 110.946 61.112 C 111.631 61.798,111.866 61.833,115.714 61.833 C 119.754 61.833,120.333 61.740,120.662 61.034 C 120.778 60.786,120.938 60.453,121.019 60.294 C 121.101 60.134,121.167 54.482,121.167 47.681 L 121.167 35.358 125.654 35.304 C 130.510 35.246,131.000 35.140,131.000 34.147 C 131.000 33.986,131.075 33.807,131.167 33.750 C 131.375 33.621,131.393 29.167,131.185 29.167 C 131.104 29.167,130.989 28.911,130.931 28.600 C 130.712 27.436,131.585 27.499,115.881 27.506 C 102.772 27.511,101.725 27.532,101.408 27.797 M164.167 27.649 C 164.167 27.730,163.992 27.841,163.779 27.895 C 162.992 28.092,163.000 27.915,163.000 44.650 C 163.000 61.647,162.985 61.346,163.870 61.655 C 164.413 61.844,171.624 61.907,172.290 61.729 C 173.382 61.436,173.333 62.235,173.333 44.750 C 173.333 27.522,173.350 27.833,172.403 27.833 C 172.273 27.833,172.167 27.758,172.167 27.667 C 172.167 27.560,170.722 27.500,168.167 27.500 C 165.935 27.500,164.167 27.566,164.167 27.649 M66.250 31.775 C 66.067 31.816,65.767 31.913,65.583 31.990 C 65.400 32.066,64.350 32.445,63.250 32.832 C 61.021 33.616,59.665 34.114,58.917 34.423 C 58.642 34.537,58.229 34.680,58.000 34.742 C 57.771 34.804,57.433 34.922,57.250 35.005 C 56.705 35.252,53.793 36.344,53.217 36.517 C 52.924 36.605,52.474 36.787,52.217 36.921 C 51.960 37.055,51.659 37.165,51.547 37.166 C 51.436 37.166,51.098 37.278,50.797 37.413 C 50.496 37.549,49.538 37.933,48.667 38.267 C 47.796 38.601,46.769 39.015,46.384 39.187 C 46.000 39.359,45.639 39.500,45.583 39.500 C 45.527 39.500,45.167 39.639,44.783 39.809 C 44.398 39.980,43.371 40.399,42.500 40.741 C 41.629 41.084,40.692 41.467,40.417 41.592 C 40.142 41.717,38.492 42.432,36.750 43.181 C 32.969 44.806,32.667 44.995,32.667 45.730 C 32.667 46.455,33.193 46.822,35.083 47.419 C 35.908 47.679,36.696 47.948,36.833 48.016 C 36.971 48.085,38.133 48.477,39.416 48.887 C 42.076 49.738,41.750 49.776,43.917 48.352 C 44.558 47.931,45.215 47.510,45.376 47.418 C 45.707 47.228,47.827 45.892,49.083 45.080 C 50.892 43.912,52.392 42.956,55.750 40.830 C 57.675 39.611,59.692 38.322,60.232 37.966 C 61.290 37.267,61.721 37.215,61.801 37.776 C 61.856 38.158,61.652 38.369,58.750 40.917 C 57.833 41.722,56.591 42.839,55.989 43.399 C 55.386 43.959,54.636 44.645,54.322 44.923 C 53.518 45.635,50.330 48.488,48.789 49.874 C 48.078 50.515,47.309 51.186,47.081 51.365 C 46.413 51.890,46.814 52.368,49.502 54.250 C 49.764 54.433,50.565 55.037,51.281 55.591 C 51.997 56.145,53.221 57.082,54.000 57.672 C 55.417 58.746,55.667 58.938,56.049 59.250 C 60.445 62.837,61.895 62.959,62.475 59.793 C 62.580 59.219,62.821 58.112,63.011 57.333 C 63.200 56.554,63.427 55.542,63.514 55.083 C 63.601 54.625,63.782 53.762,63.916 53.167 C 64.050 52.571,64.315 51.333,64.506 50.417 C 64.696 49.500,64.961 48.225,65.095 47.583 C 65.478 45.741,65.823 44.027,66.101 42.583 C 66.243 41.850,66.470 40.688,66.607 40.000 C 68.180 32.095,68.147 31.344,66.250 31.775 M145.000 36.667 C 144.862 36.756,144.389 36.829,143.949 36.831 C 142.890 36.834,140.792 37.158,140.592 37.349 C 140.505 37.432,140.317 37.500,140.175 37.501 C 140.033 37.502,139.718 37.606,139.474 37.733 C 139.231 37.860,138.762 38.053,138.433 38.161 C 138.103 38.270,137.833 38.428,137.833 38.513 C 137.833 38.597,137.762 38.667,137.674 38.667 C 137.230 38.667,134.500 41.093,134.500 41.488 C 134.500 41.577,134.405 41.710,134.289 41.783 C 134.081 41.915,133.672 42.687,133.013 44.192 C 132.826 44.618,132.624 45.389,132.563 45.905 C 132.503 46.421,132.389 46.883,132.310 46.931 C 132.123 47.047,132.123 52.667,132.310 52.667 C 132.389 52.667,132.497 53.037,132.551 53.489 C 132.605 53.941,132.802 54.650,132.991 55.063 C 133.179 55.477,133.333 55.894,133.333 55.991 C 133.333 56.088,133.393 56.167,133.467 56.167 C 133.540 56.167,133.695 56.429,133.811 56.750 C 133.927 57.071,134.094 57.333,134.183 57.333 C 134.271 57.333,134.392 57.459,134.451 57.612 C 134.576 57.939,136.267 59.659,136.750 59.951 C 136.933 60.062,137.327 60.282,137.625 60.441 C 137.923 60.599,138.167 60.784,138.167 60.851 C 138.167 60.918,138.392 61.023,138.667 61.083 C 138.942 61.144,139.167 61.252,139.167 61.324 C 139.167 61.396,139.617 61.550,140.167 61.667 C 140.717 61.783,141.167 61.936,141.167 62.006 C 141.167 62.077,141.635 62.187,142.208 62.252 C 142.781 62.317,143.355 62.455,143.483 62.559 C 143.798 62.815,150.704 62.812,151.023 62.556 C 151.148 62.456,151.756 62.321,152.375 62.257 C 152.994 62.193,153.500 62.087,153.500 62.021 C 153.500 61.956,153.950 61.802,154.500 61.680 C 155.050 61.558,155.500 61.399,155.500 61.326 C 155.500 61.253,155.725 61.144,156.000 61.083 C 156.275 61.023,156.500 60.913,156.500 60.838 C 156.500 60.764,156.679 60.658,156.897 60.603 C 158.246 60.265,158.620 59.108,157.850 57.659 C 157.583 57.159,157.166 56.350,156.921 55.860 C 156.250 54.518,155.167 53.472,155.167 54.167 C 155.167 54.258,154.985 54.333,154.762 54.333 C 154.539 54.333,154.251 54.439,154.122 54.569 C 153.992 54.698,153.556 54.901,153.152 55.019 C 152.747 55.137,152.379 55.285,152.333 55.348 C 152.188 55.548,149.906 55.833,148.468 55.832 C 145.108 55.829,143.279 55.043,142.420 53.232 C 141.877 52.090,141.333 52.167,149.958 52.163 C 158.818 52.158,159.667 52.056,159.667 50.996 C 159.667 50.852,159.747 50.653,159.844 50.556 C 160.193 50.207,159.741 44.934,159.340 44.667 C 159.271 44.621,159.122 44.190,159.008 43.708 C 158.893 43.227,158.733 42.833,158.650 42.833 C 158.568 42.833,158.500 42.764,158.500 42.678 C 158.500 41.655,155.096 38.448,153.614 38.076 C 153.368 38.014,153.167 37.903,153.167 37.829 C 153.167 37.754,152.923 37.641,152.625 37.577 C 152.327 37.514,152.006 37.399,151.911 37.324 C 151.687 37.144,149.781 36.836,148.885 36.835 C 148.501 36.834,148.140 36.758,148.083 36.667 C 147.951 36.453,145.331 36.453,145.000 36.667 M189.083 36.667 C 189.027 36.758,188.605 36.833,188.147 36.833 C 187.071 36.833,184.963 37.154,184.758 37.349 C 184.671 37.432,184.495 37.500,184.367 37.500 C 184.239 37.500,183.897 37.608,183.609 37.740 C 183.320 37.871,182.821 38.095,182.500 38.236 C 181.951 38.478,181.582 38.692,181.036 39.083 C 180.430 39.517,178.668 41.272,178.667 41.441 C 178.667 41.545,178.561 41.671,178.432 41.721 C 178.304 41.770,178.148 42.041,178.086 42.322 C 178.024 42.603,177.907 42.833,177.827 42.833 C 177.746 42.833,177.590 43.133,177.480 43.500 C 177.370 43.867,177.222 44.167,177.150 44.167 C 177.079 44.167,176.968 44.523,176.904 44.958 C 176.840 45.394,176.704 45.804,176.602 45.869 C 176.337 46.039,176.345 53.362,176.610 53.683 C 176.716 53.811,176.856 54.198,176.920 54.542 C 176.985 54.885,177.092 55.167,177.159 55.167 C 177.226 55.167,177.368 55.458,177.474 55.814 C 177.581 56.169,177.780 56.554,177.917 56.667 C 178.055 56.781,178.167 56.952,178.167 57.048 C 178.167 57.255,178.319 57.429,179.696 58.794 C 181.039 60.125,181.174 60.235,181.808 60.516 C 182.097 60.643,182.333 60.799,182.333 60.861 C 182.333 60.923,182.558 61.023,182.833 61.083 C 183.108 61.144,183.333 61.252,183.333 61.324 C 183.333 61.396,183.783 61.550,184.333 61.667 C 184.883 61.783,185.333 61.936,185.333 62.006 C 185.333 62.077,185.802 62.187,186.375 62.252 C 186.948 62.317,187.492 62.430,187.583 62.504 C 188.271 63.054,197.050 62.625,197.500 62.020 C 197.546 61.958,198.028 61.817,198.572 61.706 C 199.116 61.595,199.603 61.439,199.655 61.358 C 199.707 61.278,199.919 61.159,200.125 61.095 C 200.331 61.030,200.500 60.914,200.500 60.835 C 200.500 60.757,200.727 60.643,201.004 60.582 C 202.487 60.257,202.966 58.359,201.824 57.333 C 201.773 57.288,201.632 57.006,201.512 56.708 C 201.391 56.410,201.235 56.167,201.165 56.167 C 201.094 56.167,200.987 55.973,200.928 55.736 C 200.814 55.283,200.770 55.215,200.079 54.424 C 199.730 54.025,199.594 53.965,199.360 54.111 C 199.202 54.210,198.831 54.344,198.536 54.409 C 198.241 54.473,198.000 54.593,198.000 54.673 C 198.000 54.754,197.681 54.913,197.292 55.027 C 196.902 55.141,196.546 55.283,196.500 55.343 C 196.197 55.739,192.018 55.956,190.244 55.668 C 188.023 55.307,186.346 53.859,186.334 52.292 C 186.334 52.223,189.840 52.166,194.125 52.166 C 204.634 52.164,203.917 52.449,203.917 48.286 C 203.917 46.426,203.855 45.448,203.733 45.369 C 203.631 45.304,203.453 44.850,203.337 44.360 C 202.840 42.265,199.989 38.667,198.826 38.667 C 198.738 38.667,198.667 38.597,198.667 38.513 C 198.667 38.428,198.385 38.267,198.042 38.155 C 197.698 38.043,197.379 37.899,197.333 37.835 C 197.141 37.565,194.833 36.989,193.550 36.891 C 192.789 36.832,192.167 36.720,192.167 36.642 C 192.167 36.441,189.208 36.465,189.083 36.667 M219.417 36.667 C 219.360 36.758,218.901 36.833,218.397 36.833 C 217.324 36.833,215.157 37.144,214.917 37.332 C 214.825 37.404,214.431 37.515,214.042 37.579 C 213.652 37.643,213.333 37.758,213.333 37.835 C 213.333 37.911,213.090 38.024,212.792 38.086 C 212.494 38.149,212.063 38.321,211.833 38.471 C 211.604 38.620,211.216 38.856,210.972 38.996 C 209.716 39.713,208.753 40.635,207.924 41.917 C 207.320 42.849,206.872 43.776,206.750 44.348 C 206.683 44.661,206.554 45.009,206.462 45.122 C 206.371 45.236,206.257 45.969,206.208 46.752 C 206.159 47.536,206.055 48.216,205.976 48.265 C 205.791 48.379,205.790 50.620,205.975 50.735 C 206.053 50.783,206.166 51.398,206.225 52.102 C 206.285 52.806,206.397 53.465,206.474 53.566 C 206.552 53.667,206.716 54.125,206.840 54.583 C 206.963 55.042,207.162 55.516,207.282 55.637 C 207.402 55.758,207.500 55.953,207.500 56.069 C 207.500 56.186,207.650 56.417,207.833 56.583 C 208.017 56.749,208.167 56.953,208.167 57.035 C 208.167 57.259,209.852 58.833,210.092 58.833 C 210.205 58.833,210.341 58.946,210.394 59.083 C 210.446 59.221,210.604 59.333,210.745 59.333 C 210.885 59.333,211.000 59.393,211.000 59.467 C 211.000 59.620,211.978 60.000,212.373 60.000 C 212.519 60.000,212.665 60.079,212.697 60.175 C 212.729 60.271,213.279 60.437,213.919 60.544 C 214.560 60.650,215.130 60.805,215.187 60.886 C 215.327 61.086,220.669 61.094,220.808 60.895 C 220.868 60.809,221.404 60.641,221.999 60.521 C 222.595 60.401,223.120 60.248,223.166 60.181 C 223.212 60.114,223.382 60.010,223.544 59.951 C 223.844 59.840,223.845 59.986,223.551 61.058 C 223.388 61.656,222.247 62.607,221.453 62.807 C 220.070 63.155,214.679 62.936,214.333 62.518 C 214.247 62.413,213.477 62.100,212.544 61.791 C 211.950 61.594,211.330 62.049,211.074 62.870 C 211.009 63.079,210.909 63.288,210.853 63.333 C 210.796 63.379,210.487 63.942,210.167 64.583 C 209.846 65.225,209.521 65.795,209.446 65.851 C 209.253 65.993,209.105 67.233,209.225 67.711 C 209.328 68.121,210.796 69.000,211.377 69.000 C 211.536 69.000,211.667 69.070,211.667 69.155 C 211.667 69.240,212.229 69.400,212.917 69.511 C 213.604 69.622,214.167 69.771,214.167 69.842 C 214.167 69.913,214.748 70.019,215.458 70.077 C 216.169 70.135,216.880 70.254,217.039 70.341 C 217.402 70.540,223.167 70.553,223.167 70.355 C 223.167 70.275,223.692 70.158,224.333 70.095 C 224.975 70.032,225.500 69.921,225.500 69.850 C 225.500 69.778,225.912 69.627,226.417 69.515 C 226.921 69.402,227.333 69.246,227.333 69.168 C 227.333 69.090,227.563 68.976,227.845 68.914 C 228.126 68.852,228.396 68.696,228.446 68.568 C 228.495 68.439,228.642 68.333,228.773 68.333 C 228.904 68.333,229.054 68.221,229.106 68.083 C 229.159 67.946,229.295 67.833,229.407 67.833 C 229.812 67.833,232.000 65.455,232.000 65.015 C 232.000 64.924,232.102 64.790,232.226 64.717 C 232.351 64.643,232.544 64.302,232.656 63.958 C 232.768 63.615,232.922 63.333,233.000 63.333 C 233.077 63.333,233.192 63.090,233.256 62.792 C 233.320 62.494,233.431 62.175,233.504 62.083 C 233.684 61.856,234.000 60.084,234.000 59.303 C 234.000 58.953,234.076 58.667,234.168 58.667 C 234.280 58.667,234.322 55.576,234.293 49.489 L 234.250 40.312 233.750 40.031 C 233.475 39.877,233.213 39.708,233.167 39.657 C 233.121 39.606,232.840 39.466,232.542 39.345 C 232.244 39.225,232.000 39.064,232.000 38.987 C 232.000 38.911,231.737 38.799,231.417 38.739 C 231.096 38.679,230.833 38.568,230.833 38.493 C 230.833 38.419,230.421 38.265,229.917 38.152 C 229.412 38.039,229.000 37.888,229.000 37.817 C 229.000 37.746,228.644 37.636,228.208 37.573 C 227.773 37.510,227.342 37.399,227.250 37.327 C 227.031 37.155,224.697 36.833,223.664 36.833 C 223.218 36.833,222.807 36.758,222.750 36.667 C 222.693 36.575,221.946 36.500,221.083 36.500 C 220.221 36.500,219.473 36.575,219.417 36.667 M252.932 36.642 C 252.883 36.721,252.378 36.833,251.808 36.893 C 250.811 36.997,248.000 38.174,248.000 38.488 C 248.000 38.594,247.757 38.744,246.958 39.134 C 246.890 39.167,246.833 38.964,246.833 38.682 C 246.833 37.539,246.691 37.500,242.500 37.500 C 238.940 37.500,238.726 37.518,238.454 37.835 C 238.133 38.210,237.997 60.667,238.315 60.667 C 238.397 60.667,238.508 60.841,238.561 61.055 C 238.736 61.750,239.258 61.833,243.417 61.833 C 247.575 61.833,248.098 61.750,248.272 61.055 C 248.326 60.841,248.436 60.667,248.518 60.667 C 248.603 60.667,248.667 57.906,248.667 54.273 C 248.667 48.183,248.790 46.157,249.170 46.028 C 249.260 45.997,249.333 45.883,249.333 45.773 C 249.333 45.527,249.894 45.033,250.667 44.597 C 251.564 44.090,254.448 44.107,255.540 44.625 C 256.949 45.294,257.497 45.074,257.824 43.708 C 257.939 43.226,258.094 42.795,258.169 42.749 C 258.243 42.703,258.355 42.365,258.417 41.999 C 258.479 41.633,258.586 41.333,258.655 41.333 C 258.724 41.333,258.876 40.902,258.992 40.375 C 259.108 39.848,259.263 39.342,259.335 39.250 C 259.558 38.968,258.839 37.674,258.397 37.564 C 258.179 37.509,258.000 37.406,258.000 37.335 C 258.000 37.170,256.671 36.833,256.019 36.833 C 255.745 36.833,255.473 36.758,255.417 36.667 C 255.291 36.464,253.055 36.442,252.932 36.642 M274.917 36.667 C 274.860 36.758,274.401 36.833,273.897 36.833 C 272.811 36.833,270.653 37.145,270.417 37.336 C 270.325 37.410,269.969 37.523,269.625 37.587 C 269.281 37.651,269.000 37.764,269.000 37.839 C 269.000 37.913,268.756 38.026,268.458 38.090 C 267.971 38.195,265.969 39.280,265.335 39.782 C 264.754 40.243,263.064 41.949,262.833 42.309 C 262.696 42.523,262.415 42.930,262.208 43.215 C 262.002 43.499,261.833 43.829,261.833 43.949 C 261.833 44.069,261.764 44.167,261.680 44.167 C 261.596 44.167,261.475 44.410,261.411 44.708 C 261.348 45.006,261.154 45.565,260.981 45.949 C 260.808 46.334,260.667 46.862,260.667 47.124 C 260.667 47.386,260.575 47.691,260.463 47.803 C 260.189 48.077,260.166 54.010,260.437 54.349 C 260.540 54.478,260.676 54.940,260.739 55.375 C 260.802 55.810,260.924 56.167,261.010 56.167 C 261.096 56.167,261.167 56.306,261.167 56.477 C 261.167 57.368,263.978 61.000,264.668 61.000 C 264.765 61.000,264.887 61.112,264.940 61.250 C 264.992 61.387,265.124 61.500,265.233 61.500 C 265.341 61.500,265.722 61.649,266.080 61.832 C 266.438 62.014,266.998 62.212,267.324 62.270 C 267.650 62.329,268.022 62.461,268.151 62.563 C 268.461 62.811,273.807 62.808,273.969 62.560 C 274.032 62.464,274.454 62.335,274.908 62.274 C 275.361 62.214,275.773 62.097,275.824 62.016 C 275.875 61.934,276.227 61.785,276.606 61.683 C 276.984 61.581,277.387 61.386,277.501 61.249 C 277.615 61.112,277.776 61.000,277.859 61.000 C 277.943 61.000,278.242 60.764,278.523 60.477 C 279.067 59.920,279.218 59.972,279.436 60.792 C 279.491 60.998,279.594 61.167,279.665 61.167 C 279.736 61.167,279.834 61.317,279.882 61.500 C 279.996 61.937,287.341 62.025,287.926 61.597 C 288.374 61.270,288.532 39.833,288.087 39.833 C 287.947 39.833,287.833 39.774,287.833 39.701 C 287.833 39.548,285.290 38.253,284.667 38.089 C 284.438 38.028,284.100 37.915,283.917 37.838 C 282.640 37.297,280.322 36.843,278.802 36.837 C 278.371 36.835,277.973 36.758,277.917 36.667 C 277.860 36.575,277.185 36.500,276.417 36.500 C 275.648 36.500,274.973 36.575,274.917 36.667 M306.417 36.667 C 306.360 36.758,306.099 36.833,305.836 36.833 C 305.187 36.833,303.667 37.194,303.667 37.349 C 303.667 37.417,303.442 37.523,303.167 37.583 C 302.892 37.644,302.667 37.744,302.667 37.806 C 302.667 37.868,302.449 38.015,302.184 38.132 C 301.918 38.250,301.451 38.601,301.146 38.914 C 300.534 39.539,300.340 39.453,300.336 38.554 C 300.331 37.535,300.195 37.500,296.235 37.500 L 292.660 37.500 292.478 37.958 C 292.379 38.210,292.231 38.547,292.149 38.706 C 291.937 39.118,291.954 59.452,292.167 59.583 C 292.258 59.640,292.333 59.858,292.333 60.068 C 292.333 61.661,292.790 61.833,297.014 61.833 C 301.037 61.833,301.648 61.653,301.661 60.458 C 301.664 60.206,301.742 60.000,301.833 60.000 C 301.942 60.000,302.000 57.550,302.000 52.984 C 302.000 46.885,302.035 45.893,302.268 45.403 C 302.940 43.986,305.240 43.673,305.696 44.935 C 305.808 45.246,305.957 45.500,306.027 45.500 C 306.097 45.500,306.176 48.931,306.202 53.125 L 306.250 60.750 306.724 61.250 L 307.199 61.750 310.840 61.750 L 314.481 61.750 314.865 61.338 C 315.627 60.522,315.661 60.156,315.664 52.936 C 315.667 46.411,315.767 44.833,316.181 44.833 C 316.252 44.833,316.435 44.708,316.589 44.554 C 317.026 44.117,318.494 44.056,318.952 44.456 C 319.634 45.052,319.667 45.425,319.669 52.719 C 319.673 62.428,319.304 61.728,324.452 61.801 C 328.282 61.855,328.896 61.764,329.100 61.107 C 329.161 60.911,329.295 60.696,329.397 60.631 C 329.664 60.460,329.660 43.479,329.394 43.151 C 329.290 43.022,329.149 42.579,329.082 42.167 C 328.853 40.761,326.949 38.000,326.209 38.000 C 326.094 38.000,326.000 37.939,326.000 37.865 C 326.000 37.604,324.241 36.962,323.287 36.874 C 322.757 36.826,322.284 36.722,322.235 36.643 C 322.110 36.440,319.833 36.463,319.833 36.667 C 319.833 36.758,319.577 36.833,319.263 36.833 C 318.539 36.833,317.000 37.184,317.000 37.349 C 317.000 37.417,316.775 37.523,316.500 37.583 C 316.225 37.644,316.000 37.757,316.000 37.835 C 316.000 37.914,315.848 38.026,315.662 38.085 C 315.476 38.144,314.983 38.487,314.566 38.848 C 313.826 39.489,313.500 39.558,313.500 39.073 C 313.500 38.941,313.444 38.833,313.375 38.833 C 313.306 38.832,312.983 38.588,312.658 38.291 C 311.849 37.552,310.689 37.007,309.672 36.886 C 309.205 36.831,308.784 36.721,308.735 36.643 C 308.611 36.442,306.542 36.464,306.417 36.667 M147.667 43.313 C 147.667 43.393,147.889 43.503,148.161 43.557 C 148.917 43.708,149.803 44.360,150.009 44.917 C 150.111 45.192,150.263 45.547,150.347 45.706 C 150.767 46.502,150.779 46.500,146.333 46.500 C 141.593 46.500,141.829 46.590,142.593 45.080 C 143.013 44.249,143.134 44.137,144.096 43.691 C 144.364 43.566,144.696 43.402,144.833 43.325 C 145.168 43.139,147.667 43.128,147.667 43.313 M191.833 43.315 C 191.833 43.396,192.089 43.511,192.401 43.569 C 193.460 43.768,194.500 45.074,194.500 46.207 C 194.500 46.479,194.200 46.500,190.417 46.500 C 187.099 46.500,186.333 46.458,186.333 46.275 C 186.333 45.859,186.718 44.918,186.943 44.783 C 187.066 44.710,187.167 44.541,187.167 44.408 C 187.167 44.275,187.282 44.167,187.422 44.167 C 187.562 44.167,187.720 44.056,187.771 43.921 C 187.823 43.786,188.121 43.628,188.433 43.569 C 188.745 43.511,189.000 43.396,189.000 43.315 C 189.000 43.233,189.637 43.167,190.417 43.167 C 191.196 43.167,191.833 43.233,191.833 43.315 M223.071 44.274 L 223.856 44.382 223.803 48.066 C 223.733 52.918,223.520 53.252,220.500 53.247 C 218.492 53.244,217.624 52.755,216.883 51.208 C 216.510 50.430,216.436 46.660,216.792 46.542 C 216.906 46.503,217.000 46.342,217.000 46.183 C 217.000 45.585,218.078 44.706,219.333 44.278 C 219.702 44.153,222.165 44.150,223.071 44.274 M277.822 44.273 L 278.353 44.379 278.301 48.925 L 278.250 53.471 277.571 54.136 C 276.091 55.586,271.667 55.480,271.667 53.995 C 271.667 53.900,271.559 53.782,271.428 53.731 C 270.725 53.461,270.651 47.333,271.350 47.333 C 271.433 47.333,271.500 47.236,271.500 47.117 C 271.500 46.688,273.212 44.840,273.613 44.835 C 273.721 44.834,273.915 44.728,274.044 44.598 C 274.426 44.217,276.605 44.029,277.822 44.273 " stroke="none" fill="#fbfbfc" fill-rule="evenodd"></path><path id="path2" d="M72.250 24.833 C 73.163 25.750,73.948 26.500,73.994 26.500 C 74.040 26.500,73.330 25.750,72.417 24.833 C 71.503 23.917,70.719 23.167,70.673 23.167 C 70.627 23.167,71.337 23.917,72.250 24.833 M26.991 25.958 L 26.417 26.583 27.042 26.009 C 27.623 25.474,27.743 25.333,27.616 25.333 C 27.588 25.333,27.307 25.615,26.991 25.958 M60.833 37.553 C 60.696 37.680,58.408 39.159,55.750 40.839 C 53.092 42.520,50.729 44.018,50.500 44.169 C 49.334 44.936,45.832 47.157,45.376 47.418 C 45.215 47.510,44.558 47.931,43.917 48.352 C 42.409 49.343,41.809 49.639,41.500 49.543 C 41.362 49.500,41.417 49.588,41.620 49.739 C 41.824 49.889,42.071 50.328,42.170 50.714 C 42.532 52.128,43.035 53.763,43.264 54.275 C 43.394 54.564,43.500 54.914,43.500 55.052 C 43.500 55.190,43.645 55.704,43.822 56.194 C 43.999 56.683,44.317 57.667,44.529 58.381 C 45.292 60.955,45.717 61.033,47.843 58.991 C 50.304 56.626,51.305 55.797,51.535 55.929 C 52.059 56.232,50.999 55.381,48.092 53.167 C 46.541 51.985,46.465 51.850,47.081 51.365 C 47.309 51.186,48.078 50.515,48.789 49.874 C 50.330 48.488,53.518 45.635,54.322 44.923 C 54.636 44.645,55.386 43.959,55.989 43.399 C 56.591 42.839,57.833 41.722,58.750 40.917 C 61.654 38.366,61.856 38.159,61.801 37.774 C 61.740 37.348,61.190 37.222,60.833 37.553 M18.899 46.917 C 18.899 48.200,18.926 48.703,18.957 48.034 C 18.989 47.366,18.989 46.316,18.957 45.701 C 18.925 45.086,18.899 45.633,18.899 46.917 M81.555 46.917 C 81.555 47.558,81.586 47.800,81.622 47.455 C 81.658 47.109,81.657 46.584,81.620 46.288 C 81.583 45.992,81.554 46.275,81.555 46.917 M80.938 52.688 C 80.799 53.382,80.933 53.517,81.083 52.833 C 81.147 52.545,81.164 52.275,81.121 52.232 C 81.079 52.190,80.996 52.395,80.938 52.688 M19.367 52.583 C 19.367 52.767,19.427 53.104,19.500 53.333 C 19.606 53.663,19.633 53.681,19.633 53.417 C 19.633 53.233,19.573 52.896,19.500 52.667 C 19.394 52.337,19.367 52.319,19.367 52.583 M62.583 59.000 C 62.520 59.288,62.503 59.559,62.545 59.601 C 62.588 59.643,62.671 59.439,62.729 59.146 C 62.868 58.451,62.733 58.316,62.583 59.000 M61.761 61.458 C 61.401 61.919,61.372 61.996,61.651 61.752 C 61.986 61.460,62.426 60.833,62.298 60.833 C 62.271 60.833,62.030 61.115,61.761 61.458 M25.481 66.140 C 25.666 66.400,25.950 66.719,26.111 66.848 C 26.272 66.977,26.150 66.765,25.840 66.375 C 25.205 65.575,24.969 65.421,25.481 66.140 M73.406 67.875 L 72.917 68.417 73.458 67.927 C 73.756 67.658,74.000 67.414,74.000 67.385 C 74.000 67.257,73.862 67.370,73.406 67.875 M71.662 69.625 L 70.583 70.750 71.708 69.671 C 72.327 69.078,72.833 68.572,72.833 68.546 C 72.833 68.424,72.664 68.580,71.662 69.625 M57.917 77.167 C 57.707 77.257,57.676 77.310,57.833 77.310 C 57.971 77.310,58.233 77.245,58.417 77.167 C 58.627 77.076,58.658 77.023,58.500 77.023 C 58.362 77.023,58.100 77.088,57.917 77.167 " stroke="none" fill="#cce4f4" fill-rule="evenodd"></path><path id="path3" d="M51.542 15.782 C 51.702 15.823,51.965 15.823,52.125 15.782 C 52.285 15.740,52.154 15.705,51.833 15.705 C 51.512 15.705,51.381 15.740,51.542 15.782 M67.875 32.917 C 67.877 33.283,67.911 33.414,67.951 33.206 C 67.991 32.999,67.990 32.699,67.948 32.540 C 67.906 32.380,67.874 32.550,67.875 32.917 M81.375 45.250 C 81.377 45.617,81.411 45.747,81.451 45.540 C 81.491 45.332,81.490 45.032,81.448 44.873 C 81.406 44.714,81.374 44.883,81.375 45.250 M81.375 48.583 C 81.377 48.950,81.411 49.080,81.451 48.873 C 81.491 48.666,81.490 48.366,81.448 48.206 C 81.406 48.047,81.374 48.217,81.375 48.583 M19.039 49.000 C 19.039 49.321,19.073 49.452,19.115 49.292 C 19.157 49.131,19.157 48.869,19.115 48.708 C 19.073 48.548,19.039 48.679,19.039 49.000 M41.939 50.417 C 42.114 51.210,42.353 51.686,42.232 51.000 C 42.175 50.679,42.061 50.304,41.979 50.167 C 41.881 50.003,41.867 50.090,41.939 50.417 M43.187 54.504 C 43.439 55.250,43.581 55.395,43.428 54.750 C 43.363 54.475,43.238 54.177,43.150 54.087 C 43.063 53.998,43.079 54.185,43.187 54.504 M43.693 56.083 C 43.692 56.175,43.793 56.512,43.917 56.833 C 44.040 57.154,44.144 57.304,44.146 57.167 C 44.149 57.029,44.049 56.692,43.923 56.417 C 43.797 56.142,43.693 55.992,43.693 56.083 M49.110 57.768 C 48.483 58.368,48.000 58.889,48.036 58.925 C 48.072 58.961,48.621 58.468,49.255 57.829 C 50.709 56.364,50.618 56.326,49.110 57.768 M44.357 58.167 C 44.357 58.304,44.421 58.567,44.500 58.750 C 44.590 58.960,44.643 58.991,44.643 58.833 C 44.643 58.696,44.579 58.433,44.500 58.250 C 44.410 58.040,44.357 58.009,44.357 58.167 M44.924 59.833 C 45.343 60.658,45.851 60.857,46.426 60.422 C 46.718 60.201,46.695 60.197,46.193 60.380 C 45.667 60.572,45.613 60.556,45.216 60.083 C 44.986 59.808,44.854 59.696,44.924 59.833 M28.083 69.000 C 28.535 69.458,28.942 69.833,28.987 69.833 C 29.033 69.833,28.701 69.458,28.250 69.000 C 27.799 68.542,27.392 68.167,27.346 68.167 C 27.300 68.167,27.632 68.542,28.083 69.000 M48.375 78.115 C 48.535 78.157,48.798 78.157,48.958 78.115 C 49.119 78.073,48.987 78.039,48.667 78.039 C 48.346 78.039,48.215 78.073,48.375 78.115 M51.542 78.115 C 51.702 78.157,51.965 78.157,52.125 78.115 C 52.285 78.073,52.154 78.039,51.833 78.039 C 51.512 78.039,51.381 78.073,51.542 78.115 " stroke="none" fill="#a4cced" fill-rule="evenodd"></path><path id="path4" d="M48.167 15.837 C 47.663 15.900,48.150 15.916,49.250 15.872 C 50.350 15.828,51.281 15.764,51.319 15.729 C 51.427 15.633,49.195 15.709,48.167 15.837 M51.961 15.954 C 52.261 15.991,52.711 15.990,52.961 15.952 C 53.212 15.914,52.967 15.884,52.417 15.885 C 51.867 15.886,51.662 15.917,51.961 15.954 M56.333 16.500 C 56.903 16.683,57.341 16.683,56.917 16.500 C 56.733 16.421,56.433 16.359,56.250 16.362 C 55.982 16.366,55.998 16.393,56.333 16.500 M28.163 24.958 L 26.750 26.417 28.208 25.004 C 29.010 24.227,29.667 23.570,29.667 23.545 C 29.667 23.424,29.475 23.604,28.163 24.958 M72.167 24.917 C 72.665 25.421,73.109 25.833,73.155 25.833 C 73.201 25.833,72.831 25.421,72.333 24.917 C 71.835 24.412,71.391 24.000,71.345 24.000 C 71.299 24.000,71.669 24.412,72.167 24.917 M74.231 27.216 C 74.584 27.647,74.908 28.000,74.951 28.000 C 75.064 28.000,74.009 26.692,73.782 26.552 C 73.676 26.486,73.878 26.785,74.231 27.216 M25.167 28.333 C 24.971 28.608,24.848 28.833,24.894 28.833 C 24.940 28.833,25.138 28.608,25.333 28.333 C 25.529 28.058,25.652 27.833,25.606 27.833 C 25.560 27.833,25.362 28.058,25.167 28.333 M65.868 31.642 C 65.747 31.718,66.051 31.746,66.553 31.704 C 67.354 31.638,67.485 31.673,67.727 32.018 C 67.877 32.232,68.000 32.327,68.000 32.230 C 68.000 31.661,66.493 31.246,65.868 31.642 M77.833 32.564 C 77.833 32.743,78.329 33.667,78.425 33.667 C 78.471 33.667,78.385 33.423,78.233 33.125 C 77.924 32.517,77.833 32.390,77.833 32.564 M67.856 33.833 C 67.841 34.063,67.790 34.438,67.743 34.667 L 67.657 35.083 67.836 34.673 C 67.935 34.447,67.986 34.072,67.949 33.840 L 67.883 33.417 67.856 33.833 M67.250 37.333 C 67.186 37.712,67.169 38.057,67.211 38.100 C 67.254 38.143,67.339 37.865,67.400 37.483 C 67.461 37.101,67.479 36.756,67.439 36.717 C 67.399 36.677,67.314 36.954,67.250 37.333 M20.528 37.325 C 20.430 37.605,20.386 37.833,20.429 37.833 C 20.542 37.833,20.856 36.968,20.774 36.885 C 20.736 36.847,20.625 37.045,20.528 37.325 M19.853 39.695 C 19.842 39.848,19.790 40.110,19.737 40.278 C 19.647 40.567,19.651 40.568,19.832 40.286 C 19.937 40.123,19.989 39.861,19.947 39.703 C 19.879 39.445,19.870 39.444,19.853 39.695 M80.503 39.931 C 80.504 40.106,80.581 40.362,80.674 40.500 C 80.798 40.683,80.813 40.615,80.732 40.250 C 80.595 39.637,80.499 39.504,80.503 39.931 M19.372 42.333 C 19.372 42.654,19.406 42.785,19.448 42.625 C 19.490 42.465,19.490 42.202,19.448 42.042 C 19.406 41.881,19.372 42.012,19.372 42.333 M37.875 42.339 C 37.317 42.563,37.421 42.677,38.000 42.475 C 38.275 42.379,38.500 42.271,38.500 42.234 C 38.500 42.135,38.297 42.169,37.875 42.339 M81.214 44.083 C 81.216 44.542,81.248 44.709,81.286 44.456 C 81.325 44.203,81.324 43.828,81.284 43.623 C 81.244 43.418,81.213 43.625,81.214 44.083 M19.061 46.917 C 19.061 47.833,19.089 48.187,19.123 47.703 C 19.157 47.218,19.156 46.468,19.122 46.036 C 19.088 45.604,19.060 46.000,19.061 46.917 M81.388 46.917 C 81.389 47.558,81.419 47.800,81.455 47.455 C 81.491 47.109,81.490 46.584,81.454 46.288 C 81.417 45.992,81.387 46.275,81.388 46.917 M65.426 46.593 C 65.363 46.927,65.345 47.234,65.386 47.275 C 65.427 47.316,65.511 47.075,65.574 46.741 C 65.637 46.406,65.655 46.099,65.614 46.059 C 65.573 46.018,65.489 46.258,65.426 46.593 M36.750 48.256 C 37.025 48.382,37.362 48.483,37.500 48.480 C 37.637 48.477,37.487 48.374,37.167 48.250 C 36.406 47.957,36.106 47.961,36.750 48.256 M38.500 48.805 C 38.637 48.890,38.938 49.010,39.167 49.071 C 39.456 49.149,39.507 49.135,39.333 49.028 C 39.196 48.943,38.896 48.824,38.667 48.762 C 38.377 48.685,38.326 48.698,38.500 48.805 M81.214 49.750 C 81.216 50.208,81.248 50.376,81.286 50.123 C 81.325 49.869,81.324 49.494,81.284 49.289 C 81.244 49.084,81.213 49.292,81.214 49.750 M19.372 51.500 C 19.372 51.821,19.406 51.952,19.448 51.792 C 19.490 51.631,19.490 51.369,19.448 51.208 C 19.406 51.048,19.372 51.179,19.372 51.500 M42.020 51.167 C 42.017 51.304,42.118 51.642,42.244 51.917 C 42.539 52.560,42.543 52.261,42.250 51.500 C 42.126 51.179,42.023 51.029,42.020 51.167 M19.768 53.750 C 19.905 54.363,20.001 54.496,19.997 54.069 C 19.996 53.894,19.919 53.637,19.826 53.500 C 19.702 53.317,19.687 53.385,19.768 53.750 M80.438 54.188 C 80.299 54.882,80.433 55.017,80.583 54.333 C 80.647 54.045,80.664 53.775,80.621 53.732 C 80.579 53.690,80.496 53.895,80.438 54.188 M43.187 54.833 C 43.184 54.971,43.285 55.308,43.411 55.583 C 43.705 56.227,43.710 55.928,43.417 55.167 C 43.293 54.846,43.190 54.696,43.187 54.833 M50.738 56.393 C 50.249 56.899,47.898 59.119,46.962 59.960 C 46.529 60.348,46.220 60.667,46.277 60.667 C 46.391 60.667,47.102 60.029,49.659 57.633 C 50.618 56.735,51.330 56.008,51.243 56.018 C 51.155 56.027,50.928 56.196,50.738 56.393 M43.854 57.000 C 43.851 57.137,43.951 57.475,44.077 57.750 C 44.372 58.394,44.376 58.094,44.083 57.333 C 43.960 57.012,43.856 56.862,43.854 57.000 M62.938 58.188 C 62.799 58.882,62.933 59.017,63.083 58.333 C 63.147 58.045,63.164 57.775,63.121 57.732 C 63.079 57.690,62.996 57.895,62.938 58.188 M44.514 59.133 C 44.494 59.452,44.932 60.239,45.281 60.509 C 45.567 60.732,45.569 60.727,45.307 60.414 C 45.155 60.232,44.917 59.821,44.779 59.500 C 44.640 59.179,44.521 59.014,44.514 59.133 M62.519 60.195 C 62.509 60.348,62.457 60.610,62.404 60.778 C 62.313 61.067,62.318 61.068,62.499 60.786 C 62.603 60.623,62.655 60.361,62.614 60.203 C 62.546 59.945,62.537 59.944,62.519 60.195 M22.917 62.000 C 23.059 62.275,23.213 62.500,23.259 62.500 C 23.304 62.500,23.226 62.275,23.083 62.000 C 22.941 61.725,22.787 61.500,22.741 61.500 C 22.696 61.500,22.774 61.725,22.917 62.000 M59.407 62.071 C 59.585 62.215,59.885 62.327,60.074 62.319 C 60.349 62.308,60.329 62.278,59.971 62.170 C 59.726 62.096,59.426 61.985,59.305 61.922 C 59.183 61.860,59.229 61.927,59.407 62.071 M61.083 62.089 C 60.808 62.215,60.700 62.322,60.843 62.326 C 60.986 62.330,61.249 62.223,61.426 62.089 C 61.822 61.790,61.737 61.790,61.083 62.089 M28.167 68.917 C 28.942 69.696,29.613 70.333,29.659 70.333 C 29.705 70.333,29.108 69.696,28.333 68.917 C 27.558 68.137,26.887 67.500,26.841 67.500 C 26.795 67.500,27.392 68.137,28.167 68.917 M72.412 68.708 L 71.250 69.917 72.458 68.754 C 73.581 67.675,73.743 67.500,73.621 67.500 C 73.595 67.500,73.051 68.044,72.412 68.708 M38.000 75.583 C 38.229 75.714,38.492 75.822,38.583 75.822 C 38.675 75.822,38.563 75.714,38.333 75.583 C 38.104 75.452,37.842 75.345,37.750 75.345 C 37.658 75.345,37.771 75.452,38.000 75.583 M59.083 76.667 C 58.873 76.757,58.842 76.810,59.000 76.810 C 59.137 76.810,59.400 76.745,59.583 76.667 C 59.793 76.576,59.824 76.523,59.667 76.523 C 59.529 76.523,59.267 76.588,59.083 76.667 M43.500 77.333 C 44.070 77.516,44.508 77.516,44.083 77.333 C 43.900 77.255,43.600 77.192,43.417 77.195 C 43.149 77.199,43.165 77.226,43.500 77.333 M56.333 77.333 C 56.003 77.439,55.986 77.467,56.250 77.467 C 56.433 77.467,56.771 77.407,57.000 77.333 C 57.330 77.228,57.347 77.200,57.083 77.200 C 56.900 77.200,56.563 77.260,56.333 77.333 M48.590 78.039 C 49.510 78.112,51.010 78.112,51.923 78.039 C 53.381 77.923,53.176 77.907,50.250 77.907 C 47.313 77.907,47.116 77.923,48.590 78.039 " stroke="none" fill="#7cbbe6" fill-rule="evenodd"></path></g></svg>