<svg id="svg" version="1.1" xmlns="http://www.w3.org/2000/svg" xmlns:xlink="http://www.w3.org/1999/xlink" width="400" height="93.99538106235566" viewBox="0, 0, 400,93.99538106235566"><g id="svgg"><path id="path0" d="M47.250 16.014 C 46.242 16.099,44.967 16.275,44.417 16.405 C 43.867 16.535,43.154 16.692,42.833 16.754 C 41.417 17.026,37.765 18.375,36.211 19.198 C 35.173 19.749,33.021 20.997,32.750 21.206 C 26.659 25.904,22.913 30.693,21.091 36.111 C 20.849 36.829,20.585 37.567,20.503 37.750 C 18.839 41.470,18.833 52.114,20.493 56.083 C 20.570 56.267,20.801 56.904,21.006 57.500 C 23.001 63.273,26.894 68.290,32.750 72.632 C 33.677 73.319,36.804 74.971,38.333 75.582 C 38.929 75.820,39.567 76.081,39.750 76.162 C 40.321 76.413,42.218 76.968,42.917 77.087 C 43.283 77.150,43.958 77.302,44.417 77.426 C 46.714 78.047,53.471 78.046,56.000 77.425 C 56.504 77.301,57.217 77.149,57.583 77.087 C 67.769 75.361,77.584 65.511,80.503 54.083 C 81.426 50.469,81.534 42.175,80.679 40.512 C 80.605 40.368,80.492 39.950,80.428 39.583 C 80.315 38.933,79.782 37.172,79.242 35.667 C 74.769 23.182,61.183 14.836,47.250 16.014 M67.766 31.851 C 68.123 32.247,68.154 33.465,67.840 34.819 C 67.742 35.239,67.553 36.221,67.419 37.000 C 67.198 38.285,66.922 39.713,66.243 43.083 C 66.114 43.725,65.931 44.700,65.837 45.250 C 65.743 45.800,65.555 46.737,65.420 47.333 C 65.285 47.929,65.019 49.167,64.829 50.083 C 64.044 53.872,63.486 56.449,62.983 58.606 C 62.809 59.352,62.667 60.092,62.667 60.250 C 62.667 61.253,61.470 62.333,60.359 62.333 C 59.653 62.333,59.666 62.342,56.167 59.633 C 54.412 58.275,54.297 58.187,53.862 57.868 C 53.648 57.711,53.012 57.230,52.448 56.798 L 51.422 56.012 51.003 56.398 C 50.772 56.610,49.683 57.627,48.583 58.656 C 45.456 61.584,45.201 61.533,44.071 57.750 C 43.825 56.925,43.406 55.575,43.140 54.750 C 42.522 52.829,42.092 51.429,41.855 50.565 L 41.667 49.879 37.527 48.509 C 32.967 47.000,32.433 46.714,32.433 45.781 C 32.433 44.911,32.774 44.642,35.218 43.579 C 36.427 43.053,37.492 42.569,37.583 42.502 C 37.675 42.436,37.975 42.302,38.250 42.204 C 38.781 42.016,42.575 40.466,43.417 40.094 C 43.692 39.972,44.798 39.526,45.875 39.103 C 46.952 38.680,48.684 37.996,49.725 37.583 C 50.765 37.171,51.664 36.833,51.723 36.833 C 51.827 36.833,54.898 35.674,55.917 35.251 C 56.192 35.137,58.029 34.464,60.000 33.755 C 61.971 33.047,63.696 32.423,63.833 32.368 C 66.210 31.431,67.261 31.293,67.766 31.851 " stroke="none" fill="#2ca4dc" fill-rule="evenodd"></path><path id="path1" d="M45.670 14.281 C 45.259 14.323,44.847 14.417,44.753 14.491 C 44.660 14.565,44.077 14.679,43.458 14.743 C 42.840 14.807,42.333 14.919,42.333 14.991 C 42.333 15.063,41.771 15.222,41.083 15.344 C 40.396 15.466,39.833 15.618,39.833 15.681 C 39.833 15.745,39.571 15.845,39.250 15.906 C 38.929 15.966,38.667 16.075,38.667 16.148 C 38.667 16.220,38.254 16.379,37.750 16.500 C 37.246 16.621,36.833 16.771,36.833 16.833 C 36.833 16.896,36.533 17.046,36.167 17.167 C 35.800 17.288,35.500 17.444,35.500 17.513 C 35.500 17.583,35.275 17.690,35.000 17.750 C 34.725 17.810,34.500 17.914,34.500 17.980 C 34.500 18.046,34.237 18.195,33.917 18.311 C 33.596 18.427,33.333 18.584,33.333 18.659 C 33.333 18.735,33.146 18.844,32.917 18.902 C 32.688 18.959,32.500 19.071,32.500 19.150 C 32.500 19.228,32.275 19.386,32.000 19.500 C 31.725 19.614,31.500 19.773,31.500 19.854 C 31.500 19.934,31.388 20.000,31.251 20.000 C 31.115 20.000,30.909 20.150,30.795 20.333 C 30.680 20.517,30.505 20.667,30.406 20.667 C 30.306 20.667,30.049 20.854,29.833 21.083 C 29.618 21.313,29.384 21.500,29.312 21.500 C 29.115 21.500,24.833 25.780,24.833 25.977 C 24.833 26.072,24.735 26.210,24.616 26.283 C 24.496 26.357,24.177 26.717,23.907 27.083 C 23.638 27.450,23.359 27.825,23.289 27.917 C 22.901 28.425,22.333 29.370,22.333 29.507 C 22.333 29.595,22.277 29.667,22.207 29.667 C 22.138 29.667,21.974 29.910,21.843 30.208 C 21.711 30.506,21.505 30.849,21.385 30.970 C 21.265 31.091,21.167 31.298,21.167 31.429 C 21.167 31.560,21.104 31.667,21.026 31.667 C 20.949 31.667,20.793 31.979,20.678 32.360 C 20.564 32.741,20.365 33.159,20.235 33.288 C 20.106 33.418,20.000 33.664,20.000 33.835 C 20.000 34.007,19.925 34.193,19.833 34.250 C 19.742 34.307,19.583 34.686,19.480 35.093 C 19.378 35.500,19.234 35.833,19.162 35.833 C 19.089 35.833,18.942 36.358,18.833 37.000 C 18.725 37.642,18.575 38.167,18.501 38.167 C 18.426 38.167,18.312 38.560,18.247 39.042 C 18.182 39.523,18.071 39.992,17.999 40.083 C 17.362 40.898,17.357 52.779,17.993 53.583 C 18.066 53.675,18.178 54.181,18.241 54.708 C 18.305 55.235,18.420 55.667,18.497 55.667 C 18.574 55.667,18.725 56.192,18.833 56.833 C 18.942 57.475,19.089 58.000,19.162 58.000 C 19.234 58.000,19.378 58.333,19.480 58.740 C 19.583 59.147,19.742 59.527,19.833 59.583 C 19.925 59.640,20.000 59.827,20.000 59.998 C 20.000 60.169,20.106 60.415,20.235 60.545 C 20.365 60.674,20.564 61.092,20.678 61.473 C 20.793 61.855,20.949 62.167,21.026 62.167 C 21.104 62.167,21.167 62.274,21.167 62.405 C 21.167 62.536,21.265 62.742,21.385 62.863 C 21.505 62.984,21.711 63.327,21.843 63.625 C 21.974 63.923,22.138 64.167,22.207 64.167 C 22.277 64.167,22.333 64.238,22.333 64.326 C 22.333 64.463,22.901 65.408,23.289 65.917 C 23.359 66.009,23.638 66.384,23.907 66.750 C 24.177 67.117,24.496 67.477,24.616 67.550 C 24.735 67.623,24.833 67.760,24.833 67.853 C 24.833 68.055,29.102 72.333,29.303 72.333 C 29.380 72.333,29.618 72.521,29.833 72.750 C 30.049 72.979,30.306 73.167,30.406 73.167 C 30.505 73.167,30.680 73.317,30.795 73.500 C 30.909 73.683,31.115 73.833,31.251 73.833 C 31.388 73.833,31.500 73.899,31.500 73.980 C 31.500 74.060,31.725 74.219,32.000 74.333 C 32.275 74.447,32.500 74.605,32.500 74.684 C 32.500 74.763,32.688 74.874,32.917 74.932 C 33.146 74.989,33.333 75.098,33.333 75.174 C 33.333 75.250,33.596 75.407,33.917 75.523 C 34.237 75.639,34.500 75.788,34.500 75.854 C 34.500 75.920,34.725 76.023,35.000 76.083 C 35.275 76.144,35.500 76.250,35.500 76.320 C 35.500 76.390,35.800 76.546,36.167 76.667 C 36.533 76.788,36.833 76.938,36.833 77.000 C 36.833 77.062,37.246 77.212,37.750 77.333 C 38.254 77.454,38.667 77.613,38.667 77.686 C 38.667 77.759,38.929 77.867,39.250 77.928 C 39.571 77.988,39.833 78.089,39.833 78.152 C 39.833 78.215,40.396 78.367,41.083 78.489 C 41.771 78.611,42.333 78.767,42.333 78.836 C 42.333 78.905,42.840 79.015,43.458 79.080 C 44.077 79.146,44.689 79.286,44.817 79.391 C 45.145 79.660,55.351 79.663,55.683 79.394 C 55.811 79.289,56.385 79.151,56.958 79.086 C 57.531 79.020,58.000 78.916,58.000 78.853 C 58.000 78.790,58.544 78.640,59.208 78.518 C 59.873 78.396,60.492 78.239,60.583 78.168 C 60.675 78.097,60.994 77.986,61.292 77.923 C 61.590 77.859,61.833 77.747,61.833 77.674 C 61.833 77.601,62.060 77.496,62.336 77.441 C 62.613 77.386,63.252 77.151,63.758 76.920 C 64.263 76.689,64.749 76.500,64.838 76.500 C 64.927 76.500,65.000 76.431,65.000 76.347 C 65.000 76.262,65.225 76.144,65.500 76.083 C 65.775 76.023,66.000 75.910,66.000 75.831 C 66.000 75.753,66.167 75.636,66.372 75.571 C 66.770 75.445,67.716 74.825,67.802 74.634 C 67.831 74.571,68.113 74.434,68.427 74.330 C 68.742 74.226,69.000 74.070,69.000 73.983 C 69.000 73.896,69.188 73.754,69.417 73.667 C 69.646 73.580,69.833 73.431,69.833 73.337 C 69.833 73.244,69.942 73.167,70.075 73.167 C 70.208 73.167,70.377 73.072,70.450 72.957 C 70.523 72.842,70.879 72.528,71.240 72.258 C 72.001 71.690,75.667 68.042,75.667 67.853 C 75.667 67.782,75.854 67.549,76.083 67.333 C 76.313 67.118,76.500 66.850,76.500 66.739 C 76.500 66.627,76.612 66.492,76.750 66.440 C 76.887 66.387,77.000 66.266,77.000 66.172 C 77.000 66.077,77.150 65.850,77.333 65.667 C 77.517 65.483,77.667 65.221,77.667 65.083 C 77.667 64.946,77.733 64.833,77.813 64.833 C 77.894 64.833,78.058 64.590,78.178 64.292 C 78.299 63.994,78.495 63.690,78.615 63.617 C 78.735 63.543,78.833 63.375,78.833 63.242 C 78.833 63.109,78.905 63.000,78.993 63.000 C 79.081 63.000,79.243 62.700,79.353 62.333 C 79.463 61.967,79.610 61.667,79.680 61.667 C 79.750 61.667,79.856 61.442,79.917 61.167 C 79.977 60.892,80.094 60.667,80.178 60.667 C 80.261 60.667,80.414 60.329,80.517 59.917 C 80.621 59.504,80.760 59.167,80.827 59.167 C 80.893 59.167,81.046 58.754,81.167 58.250 C 81.288 57.746,81.440 57.333,81.505 57.333 C 81.570 57.333,81.673 56.958,81.734 56.500 C 81.795 56.042,81.906 55.667,81.982 55.667 C 82.057 55.667,82.216 54.973,82.336 54.125 C 82.456 53.277,82.636 52.530,82.735 52.464 C 82.860 52.383,82.917 50.644,82.917 46.917 C 82.917 43.189,82.860 41.451,82.735 41.369 C 82.636 41.304,82.456 40.556,82.336 39.708 C 82.216 38.860,82.057 38.167,81.982 38.167 C 81.906 38.167,81.795 37.792,81.734 37.333 C 81.673 36.875,81.570 36.500,81.505 36.500 C 81.440 36.500,81.288 36.087,81.167 35.583 C 81.046 35.079,80.893 34.667,80.827 34.667 C 80.760 34.667,80.621 34.329,80.517 33.917 C 80.414 33.504,80.261 33.167,80.178 33.167 C 80.094 33.167,79.977 32.942,79.917 32.667 C 79.856 32.392,79.750 32.167,79.680 32.167 C 79.610 32.167,79.463 31.867,79.353 31.500 C 79.243 31.133,79.081 30.833,78.993 30.833 C 78.905 30.833,78.833 30.718,78.833 30.578 C 78.833 30.438,78.725 30.281,78.594 30.231 C 78.462 30.180,78.305 29.915,78.244 29.641 C 78.184 29.368,78.037 29.106,77.916 29.060 C 77.795 29.014,77.655 28.813,77.605 28.613 C 77.554 28.413,77.284 28.002,77.006 27.698 C 76.728 27.394,76.500 27.089,76.500 27.019 C 76.500 26.949,76.313 26.715,76.083 26.500 C 75.854 26.285,75.667 26.053,75.667 25.986 C 75.667 25.806,71.926 22.086,71.203 21.547 C 70.862 21.293,70.523 20.991,70.450 20.876 C 70.377 20.761,70.245 20.667,70.158 20.667 C 70.071 20.667,69.859 20.535,69.686 20.375 C 69.124 19.852,68.603 19.500,68.391 19.500 C 68.277 19.500,68.123 19.406,68.050 19.292 C 67.901 19.059,67.157 18.605,66.458 18.321 C 66.206 18.218,66.000 18.072,66.000 17.997 C 66.000 17.922,65.775 17.810,65.500 17.750 C 65.225 17.690,65.000 17.583,65.000 17.513 C 65.000 17.444,64.700 17.288,64.333 17.167 C 63.967 17.046,63.667 16.896,63.667 16.833 C 63.667 16.771,63.254 16.621,62.750 16.500 C 62.246 16.379,61.833 16.223,61.833 16.153 C 61.833 16.084,61.590 15.974,61.292 15.911 C 60.994 15.847,60.675 15.737,60.583 15.666 C 60.492 15.595,59.873 15.437,59.208 15.315 C 58.544 15.194,58.000 15.043,58.000 14.980 C 58.000 14.917,57.531 14.813,56.958 14.748 C 56.385 14.683,55.813 14.545,55.686 14.442 C 55.453 14.253,47.260 14.122,45.670 14.281 M55.333 15.993 C 55.746 16.088,56.571 16.272,57.167 16.401 C 58.464 16.683,59.957 17.099,60.417 17.308 C 60.600 17.392,61.313 17.674,62.000 17.936 C 78.787 24.331,86.444 44.824,78.152 61.167 C 74.077 69.198,65.734 75.689,57.250 77.429 C 56.608 77.561,55.671 77.760,55.167 77.872 C 53.928 78.146,46.572 78.146,45.333 77.872 C 44.829 77.760,43.892 77.562,43.250 77.431 C 36.609 76.080,29.926 71.758,25.165 65.734 C 23.478 63.600,20.751 58.276,20.412 56.456 C 20.348 56.112,20.236 55.793,20.162 55.747 C 20.089 55.702,19.978 55.347,19.915 54.957 C 19.852 54.568,19.700 53.913,19.576 53.500 C 18.023 48.317,19.187 38.603,21.993 33.321 C 22.070 33.177,22.342 32.652,22.599 32.155 C 24.748 27.986,28.749 23.611,32.996 20.788 C 36.873 18.211,42.204 16.267,46.750 15.773 C 47.931 15.645,54.559 15.815,55.333 15.993 M157.833 43.083 L 157.833 62.333 162.333 62.333 L 166.833 62.333 166.833 43.083 L 166.833 23.833 162.333 23.833 L 157.833 23.833 157.833 43.083 M94.333 29.333 L 94.333 33.167 99.667 33.167 L 105.000 33.167 105.000 47.732 C 105.000 60.860,105.026 62.308,105.264 62.399 C 105.608 62.531,114.059 62.531,114.403 62.399 C 114.641 62.308,114.667 60.860,114.667 47.732 L 114.667 33.167 120.000 33.167 L 125.333 33.167 125.333 29.333 L 125.333 25.500 109.833 25.500 L 94.333 25.500 94.333 29.333 M66.250 31.775 C 66.067 31.816,65.767 31.913,65.583 31.990 C 65.400 32.066,64.350 32.445,63.250 32.832 C 61.021 33.616,59.665 34.114,58.917 34.423 C 58.642 34.537,58.229 34.680,58.000 34.742 C 57.771 34.804,57.433 34.922,57.250 35.005 C 56.705 35.252,53.793 36.344,53.217 36.517 C 52.924 36.605,52.474 36.787,52.217 36.921 C 51.960 37.055,51.659 37.165,51.547 37.166 C 51.436 37.166,51.098 37.278,50.797 37.413 C 50.496 37.549,49.538 37.933,48.667 38.267 C 47.796 38.601,46.769 39.015,46.384 39.187 C 46.000 39.359,45.639 39.500,45.583 39.500 C 45.527 39.500,45.167 39.639,44.783 39.809 C 44.398 39.980,43.371 40.399,42.500 40.741 C 41.629 41.084,40.692 41.467,40.417 41.592 C 40.142 41.717,38.492 42.432,36.750 43.181 C 32.969 44.806,32.667 44.995,32.667 45.730 C 32.667 46.455,33.193 46.822,35.083 47.419 C 35.908 47.679,36.696 47.948,36.833 48.016 C 36.971 48.085,38.133 48.477,39.416 48.887 C 42.076 49.738,41.750 49.776,43.917 48.352 C 44.558 47.931,45.215 47.510,45.376 47.418 C 45.707 47.228,47.827 45.892,49.083 45.080 C 50.892 43.912,52.392 42.956,55.750 40.830 C 57.675 39.611,59.692 38.322,60.232 37.966 C 61.290 37.267,61.721 37.215,61.801 37.776 C 61.856 38.158,61.652 38.369,58.750 40.917 C 57.833 41.722,56.591 42.839,55.989 43.399 C 55.386 43.959,54.636 44.645,54.322 44.923 C 53.518 45.635,50.330 48.488,48.789 49.874 C 48.078 50.515,47.309 51.186,47.081 51.365 C 46.413 51.890,46.814 52.368,49.502 54.250 C 49.764 54.433,50.565 55.037,51.281 55.591 C 51.997 56.145,53.221 57.082,54.000 57.672 C 55.417 58.746,55.667 58.938,56.049 59.250 C 60.445 62.837,61.895 62.959,62.475 59.793 C 62.580 59.219,62.821 58.112,63.011 57.333 C 63.200 56.554,63.427 55.542,63.514 55.083 C 63.601 54.625,63.782 53.762,63.916 53.167 C 64.050 52.571,64.315 51.333,64.506 50.417 C 64.696 49.500,64.961 48.225,65.095 47.583 C 65.478 45.741,65.823 44.027,66.101 42.583 C 66.243 41.850,66.470 40.688,66.607 40.000 C 68.180 32.095,68.147 31.344,66.250 31.775 M138.750 33.660 C 138.567 33.735,137.784 33.879,137.010 33.980 C 136.236 34.081,135.528 34.239,135.435 34.332 C 135.342 34.424,135.150 34.500,135.008 34.501 C 134.624 34.502,132.109 35.810,131.952 36.091 C 131.878 36.224,131.721 36.333,131.603 36.333 C 131.371 36.333,129.213 38.454,128.944 38.947 C 128.853 39.114,128.723 39.288,128.654 39.334 C 128.058 39.737,126.691 43.272,126.551 44.776 C 126.496 45.357,126.388 45.833,126.309 45.833 C 126.231 45.833,126.167 47.108,126.167 48.667 C 126.167 50.225,126.231 51.500,126.310 51.500 C 126.389 51.500,126.505 51.999,126.568 52.608 C 126.630 53.218,126.828 54.039,127.007 54.432 C 127.187 54.826,127.333 55.265,127.333 55.408 C 127.333 55.550,127.393 55.667,127.467 55.667 C 127.540 55.667,127.695 55.929,127.811 56.250 C 127.927 56.571,128.092 56.833,128.177 56.833 C 128.263 56.833,128.333 56.948,128.333 57.089 C 128.333 57.229,128.446 57.387,128.583 57.440 C 128.721 57.492,128.833 57.630,128.833 57.746 C 128.833 57.983,130.789 60.000,131.018 60.000 C 131.100 60.000,131.311 60.131,131.488 60.292 C 132.120 60.865,132.311 60.988,132.736 61.095 C 132.973 61.154,133.167 61.255,133.167 61.318 C 133.167 61.446,134.156 61.833,134.482 61.833 C 134.597 61.833,134.803 61.946,134.940 62.083 C 135.078 62.221,135.395 62.333,135.645 62.333 C 135.895 62.333,136.171 62.403,136.258 62.487 C 136.476 62.699,138.776 63.000,140.179 63.000 C 140.837 63.000,141.333 63.072,141.333 63.167 C 141.333 63.265,141.913 63.333,142.740 63.333 C 143.514 63.333,144.193 63.258,144.250 63.167 C 144.307 63.075,144.721 63.000,145.170 63.000 C 146.163 63.000,148.520 62.670,148.750 62.499 C 148.842 62.431,149.273 62.324,149.708 62.261 C 150.144 62.198,150.500 62.088,150.500 62.016 C 150.500 61.945,150.912 61.794,151.417 61.681 C 151.921 61.568,152.333 61.415,152.333 61.340 C 152.333 61.265,152.597 61.154,152.920 61.094 L 153.506 60.984 153.461 57.117 L 153.417 53.250 152.833 53.203 C 152.396 53.168,152.032 53.300,151.380 53.732 C 150.901 54.049,150.357 54.356,150.172 54.415 C 149.986 54.474,149.833 54.592,149.833 54.678 C 149.833 54.763,149.745 54.833,149.636 54.833 C 149.527 54.833,149.134 54.974,148.761 55.146 C 144.258 57.224,137.373 56.284,136.283 53.442 C 136.225 53.291,136.103 53.167,136.012 53.167 C 135.921 53.167,135.753 52.717,135.640 52.167 C 135.526 51.617,135.373 51.167,135.300 51.167 C 135.227 51.167,135.167 50.979,135.167 50.750 L 135.167 50.333 144.591 50.333 L 154.016 50.333 153.945 47.625 C 153.873 44.894,153.612 42.433,153.359 42.098 C 153.283 41.998,153.129 41.485,153.016 40.958 C 152.902 40.431,152.740 40.000,152.655 40.000 C 152.570 40.000,152.500 39.893,152.500 39.762 C 152.500 39.631,152.405 39.425,152.290 39.304 C 152.174 39.182,151.990 38.882,151.882 38.636 C 151.498 37.769,149.471 35.667,149.018 35.667 C 148.917 35.667,148.833 35.597,148.833 35.511 C 148.833 35.425,148.571 35.260,148.250 35.144 C 147.929 35.028,147.667 34.873,147.667 34.800 C 147.667 34.727,147.550 34.667,147.408 34.667 C 147.265 34.667,146.829 34.521,146.438 34.343 C 146.047 34.165,145.149 33.967,144.442 33.903 C 143.736 33.839,143.118 33.722,143.069 33.643 C 142.957 33.462,139.197 33.476,138.750 33.660 M183.750 33.667 C 183.693 33.758,183.376 33.833,183.045 33.833 C 182.147 33.833,180.333 34.179,180.333 34.350 C 180.333 34.433,180.163 34.500,179.956 34.500 C 179.748 34.500,179.317 34.640,178.998 34.810 C 178.678 34.981,178.235 35.177,178.013 35.247 C 177.791 35.317,177.528 35.441,177.429 35.523 C 176.623 36.194,176.433 36.333,176.317 36.333 C 176.094 36.333,174.113 38.395,173.584 39.178 C 173.309 39.584,173.034 39.955,172.972 40.002 C 172.910 40.048,172.808 40.292,172.745 40.543 C 172.682 40.795,172.572 41.000,172.500 41.000 C 172.428 41.000,172.318 41.206,172.255 41.458 C 172.192 41.710,172.043 42.142,171.923 42.417 C 171.169 44.141,170.708 49.655,171.142 51.750 C 171.472 53.344,171.706 54.251,171.831 54.417 C 171.900 54.508,172.053 54.883,172.170 55.250 C 172.361 55.846,172.758 56.606,172.996 56.833 C 173.045 56.879,173.187 57.117,173.313 57.363 C 173.642 58.001,175.613 60.000,175.914 60.000 C 176.053 60.000,176.167 60.077,176.167 60.171 C 176.167 60.265,176.354 60.413,176.583 60.500 C 176.813 60.587,177.000 60.729,177.000 60.816 C 177.000 60.903,177.225 61.023,177.500 61.083 C 177.775 61.144,178.000 61.262,178.000 61.347 C 178.000 61.432,178.338 61.592,178.750 61.702 C 179.162 61.812,179.500 61.959,179.500 62.027 C 179.500 62.096,179.781 62.197,180.125 62.252 C 180.469 62.307,180.884 62.425,181.048 62.514 C 181.446 62.732,183.483 62.988,184.865 62.995 C 185.479 62.998,186.027 63.075,186.083 63.167 C 186.140 63.258,186.815 63.333,187.583 63.333 C 188.352 63.333,189.027 63.258,189.083 63.167 C 189.140 63.075,189.554 63.000,190.003 63.000 C 191.014 63.000,193.358 62.669,193.583 62.494 C 193.675 62.423,194.106 62.311,194.542 62.247 C 194.977 62.182,195.333 62.074,195.333 62.008 C 195.333 61.941,195.746 61.794,196.250 61.681 C 196.754 61.568,197.167 61.415,197.167 61.340 C 197.167 61.265,197.431 61.154,197.753 61.094 L 198.339 60.984 198.295 57.117 L 198.250 53.250 197.590 53.196 C 197.172 53.162,196.866 53.226,196.757 53.371 C 196.661 53.496,196.340 53.698,196.042 53.820 C 195.744 53.941,195.500 54.106,195.500 54.187 C 195.500 54.267,195.393 54.333,195.262 54.333 C 195.131 54.333,194.923 54.435,194.799 54.558 C 194.675 54.682,194.276 54.880,193.912 54.999 C 193.548 55.118,193.213 55.267,193.167 55.330 C 193.067 55.468,191.273 55.958,190.000 56.195 C 188.968 56.387,185.221 56.252,184.932 56.012 C 184.829 55.927,184.390 55.769,183.956 55.659 C 183.522 55.550,183.167 55.399,183.167 55.325 C 183.167 55.250,182.998 55.138,182.792 55.076 C 182.325 54.936,181.167 53.844,181.167 53.544 C 181.167 53.423,181.058 53.281,180.925 53.230 C 180.793 53.179,180.592 52.728,180.480 52.228 C 180.369 51.728,180.215 51.280,180.138 51.233 C 180.062 51.185,180.000 50.964,180.000 50.740 L 180.000 50.333 189.333 50.333 L 198.667 50.333 198.665 47.792 C 198.664 45.162,198.429 42.404,198.180 42.094 C 198.102 41.996,197.985 41.598,197.921 41.208 C 197.857 40.819,197.747 40.500,197.678 40.500 C 197.609 40.500,197.463 40.200,197.353 39.833 C 197.243 39.467,197.089 39.167,197.011 39.167 C 196.933 39.167,196.827 38.998,196.774 38.792 C 196.722 38.585,196.451 38.168,196.173 37.865 C 195.894 37.561,195.667 37.253,195.667 37.180 C 195.667 37.107,195.466 36.905,195.221 36.732 C 194.976 36.558,194.611 36.248,194.410 36.042 C 194.209 35.835,193.960 35.667,193.856 35.667 C 193.752 35.667,193.667 35.597,193.667 35.511 C 193.667 35.425,193.404 35.260,193.083 35.144 C 192.762 35.028,192.500 34.879,192.500 34.813 C 192.500 34.747,192.256 34.641,191.958 34.577 C 191.660 34.514,191.332 34.394,191.229 34.311 C 191.126 34.228,190.413 34.079,189.646 33.980 C 188.878 33.880,188.120 33.732,187.961 33.650 C 187.562 33.443,183.879 33.458,183.750 33.667 M212.167 33.649 C 212.029 33.726,211.341 33.831,210.638 33.881 C 209.373 33.971,208.957 34.102,207.167 34.972 C 206.052 35.513,206.151 35.443,204.875 36.599 C 204.302 37.118,203.833 37.643,203.833 37.765 C 203.833 37.888,203.683 38.069,203.500 38.167 C 203.317 38.265,203.167 38.455,203.167 38.589 C 203.167 38.723,203.097 38.833,203.011 38.833 C 202.925 38.833,202.760 39.096,202.644 39.417 C 202.528 39.737,202.377 40.000,202.307 40.000 C 202.238 40.000,202.133 40.262,202.072 40.583 C 202.012 40.904,201.902 41.167,201.827 41.167 C 201.752 41.167,201.606 41.598,201.503 42.125 C 201.400 42.652,201.226 43.264,201.116 43.484 C 200.853 44.012,200.832 52.622,201.093 52.798 C 201.190 52.863,201.363 53.435,201.477 54.068 C 201.591 54.701,201.793 55.374,201.926 55.563 C 202.058 55.753,202.167 55.994,202.167 56.099 C 202.167 56.272,202.688 57.248,203.215 58.061 C 203.606 58.665,205.010 60.000,205.254 60.000 C 205.389 60.000,205.500 60.077,205.500 60.171 C 205.500 60.265,205.688 60.413,205.917 60.500 C 206.146 60.587,206.333 60.727,206.333 60.811 C 206.333 60.894,206.590 61.011,206.905 61.070 C 207.219 61.129,207.501 61.252,207.531 61.344 C 207.562 61.435,208.242 61.599,209.043 61.709 C 209.844 61.818,210.500 61.966,210.500 62.037 C 210.500 62.230,213.130 62.194,213.250 62.000 C 213.307 61.908,213.568 61.833,213.830 61.833 C 214.507 61.833,216.000 61.469,216.000 61.305 C 216.000 61.229,216.086 61.167,216.192 61.167 C 216.379 61.167,218.169 60.331,218.333 60.167 C 219.020 59.480,219.059 59.528,218.944 60.898 C 218.790 62.736,217.602 64.833,216.715 64.833 C 216.597 64.833,216.500 64.900,216.500 64.981 C 216.500 65.063,216.219 65.182,215.875 65.247 C 215.532 65.311,215.199 65.448,215.135 65.551 C 214.975 65.810,209.692 65.811,209.532 65.552 C 209.469 65.450,209.042 65.312,208.583 65.245 C 208.125 65.179,207.675 65.066,207.583 64.995 C 207.492 64.924,207.079 64.780,206.667 64.676 C 206.254 64.572,205.763 64.410,205.575 64.316 C 205.387 64.222,204.862 64.169,204.408 64.198 L 203.583 64.250 203.538 67.867 C 203.487 72.005,203.376 71.714,205.083 71.920 C 205.633 71.987,206.158 72.099,206.250 72.170 C 207.025 72.772,218.561 72.796,218.994 72.198 C 219.043 72.130,219.533 71.982,220.083 71.870 C 220.633 71.758,221.108 71.592,221.139 71.500 C 221.169 71.408,221.328 71.333,221.491 71.333 C 221.655 71.333,221.967 71.194,222.186 71.023 C 222.404 70.852,222.750 70.660,222.954 70.596 C 223.158 70.533,223.466 70.300,223.639 70.080 C 223.812 69.861,224.152 69.590,224.393 69.480 C 224.635 69.370,224.833 69.227,224.833 69.162 C 224.833 69.098,225.058 68.791,225.333 68.481 C 225.608 68.171,225.926 67.710,226.040 67.458 C 226.155 67.206,226.305 67.000,226.374 67.000 C 226.443 67.000,226.500 66.903,226.500 66.785 C 226.500 66.667,226.646 66.285,226.824 65.936 C 227.002 65.586,227.198 65.064,227.260 64.775 C 227.321 64.486,227.431 64.175,227.503 64.083 C 227.897 63.581,227.999 60.228,228.000 47.708 L 228.000 34.500 223.667 34.500 C 219.507 34.500,219.333 34.513,219.333 34.819 C 219.333 34.995,219.240 35.170,219.126 35.208 C 218.858 35.297,217.833 34.984,217.833 34.813 C 217.833 34.741,217.571 34.633,217.250 34.572 C 216.929 34.512,216.667 34.406,216.667 34.336 C 216.667 34.163,215.851 33.998,214.250 33.846 C 213.517 33.777,212.804 33.672,212.667 33.614 C 212.529 33.556,212.304 33.572,212.167 33.649 M265.000 33.660 C 264.862 33.753,264.313 33.829,263.778 33.831 C 262.527 33.834,259.633 34.168,259.417 34.335 C 259.325 34.405,258.781 34.516,258.208 34.581 C 257.635 34.646,257.167 34.767,257.167 34.850 C 257.167 34.932,257.032 35.000,256.867 35.000 C 256.221 35.000,256.167 35.286,256.167 38.667 C 256.167 40.985,256.225 41.991,256.367 42.133 C 256.597 42.364,257.667 42.407,257.667 42.185 C 257.667 42.104,257.910 41.991,258.208 41.934 C 258.506 41.878,258.945 41.730,259.184 41.605 C 259.423 41.480,260.023 41.283,260.518 41.167 C 261.012 41.051,261.499 40.891,261.600 40.811 C 261.702 40.732,262.360 40.618,263.064 40.558 C 263.768 40.499,264.384 40.386,264.432 40.308 C 264.546 40.124,265.288 40.125,265.402 40.310 C 265.451 40.389,266.149 40.493,266.954 40.542 C 267.817 40.594,268.622 40.740,268.917 40.897 C 269.192 41.044,269.499 41.165,269.600 41.166 C 269.963 41.168,270.817 42.163,270.989 42.783 C 271.324 43.990,271.513 43.909,267.794 44.144 C 265.939 44.262,264.383 44.412,264.336 44.477 C 264.289 44.543,263.622 44.686,262.854 44.795 C 262.087 44.904,261.374 45.061,261.271 45.144 C 261.168 45.227,260.843 45.346,260.549 45.409 C 260.255 45.472,259.715 45.668,259.349 45.845 C 258.982 46.022,258.604 46.167,258.508 46.167 C 258.412 46.167,258.333 46.242,258.333 46.333 C 258.333 46.425,258.218 46.500,258.078 46.500 C 257.938 46.500,257.780 46.612,257.727 46.750 C 257.674 46.887,257.538 47.000,257.425 47.000 C 256.794 47.000,254.667 49.720,254.667 50.526 C 254.667 50.680,254.593 50.831,254.502 50.861 C 254.059 51.011,254.030 57.197,254.472 57.489 C 254.551 57.541,254.669 57.804,254.735 58.073 C 254.801 58.343,255.001 58.767,255.178 59.016 C 255.355 59.264,255.500 59.513,255.500 59.567 C 255.500 59.781,257.693 61.833,257.922 61.833 C 258.057 61.833,258.167 61.907,258.167 61.997 C 258.167 62.087,258.354 62.207,258.583 62.265 C 258.813 62.322,259.000 62.423,259.000 62.489 C 259.000 62.650,260.549 63.000,261.263 63.000 C 261.577 63.000,261.833 63.075,261.833 63.167 C 261.833 63.261,262.306 63.333,262.917 63.333 C 263.512 63.333,264.000 63.269,264.000 63.191 C 264.000 63.112,264.528 63.004,265.173 62.950 C 265.818 62.896,266.579 62.735,266.865 62.593 C 267.151 62.450,267.480 62.333,267.597 62.333 C 267.714 62.333,267.909 62.236,268.030 62.118 C 268.151 62.000,268.494 61.803,268.792 61.681 C 269.090 61.559,269.333 61.399,269.333 61.324 C 269.333 61.250,269.465 61.147,269.625 61.095 C 269.785 61.043,270.156 60.776,270.449 60.500 C 271.157 59.835,271.145 59.823,271.201 61.208 L 271.250 62.417 275.417 62.464 C 277.708 62.489,279.754 62.469,279.962 62.418 L 280.341 62.325 280.277 52.621 C 280.216 43.446,280.093 40.771,279.692 39.925 C 279.603 39.737,279.371 39.236,279.176 38.811 C 278.981 38.386,278.693 37.879,278.536 37.685 C 278.379 37.491,278.066 37.108,277.841 36.833 C 277.616 36.558,277.333 36.333,277.211 36.333 C 277.089 36.333,276.950 36.231,276.902 36.106 C 276.772 35.767,274.108 34.500,273.526 34.500 C 273.339 34.500,273.144 34.432,273.093 34.349 C 272.862 33.976,265.467 33.346,265.000 33.660 M302.765 33.624 C 302.704 33.685,302.106 33.788,301.436 33.852 C 300.390 33.952,298.594 34.519,298.333 34.833 C 298.287 34.888,297.875 35.148,297.417 35.410 C 296.958 35.673,296.546 35.932,296.500 35.987 C 296.350 36.165,295.191 37.000,295.094 37.000 C 295.043 37.000,295.000 36.438,295.000 35.750 L 295.000 34.500 290.500 34.500 L 286.000 34.500 286.000 48.417 L 286.000 62.333 290.500 62.333 L 295.000 62.333 295.000 52.750 C 295.000 41.875,294.847 42.956,296.506 42.125 C 297.010 41.873,297.585 41.667,297.784 41.667 C 297.984 41.667,298.193 41.592,298.250 41.500 C 298.307 41.408,298.649 41.333,299.010 41.333 C 299.371 41.333,299.667 41.408,299.667 41.500 C 299.667 41.592,299.851 41.667,300.075 41.667 C 300.697 41.667,301.272 41.988,301.523 42.477 C 301.648 42.719,301.810 42.961,301.884 43.016 C 301.958 43.070,302.062 43.539,302.116 44.057 C 302.170 44.576,302.278 45.000,302.357 45.000 C 302.435 45.000,302.500 48.900,302.500 53.667 L 302.500 62.333 307.000 62.333 L 311.500 62.333 311.500 52.698 L 311.500 43.063 311.993 42.698 C 312.265 42.497,312.565 42.333,312.660 42.333 C 312.755 42.333,312.833 42.273,312.833 42.200 C 312.833 42.029,313.831 41.667,314.303 41.667 C 314.503 41.667,314.667 41.592,314.667 41.500 C 314.667 41.296,315.945 41.276,316.069 41.478 C 316.118 41.557,316.430 41.666,316.761 41.720 C 317.400 41.823,318.063 42.405,318.260 43.036 C 318.325 43.245,318.462 43.470,318.564 43.535 C 318.696 43.620,318.765 46.357,318.801 52.994 L 318.851 62.333 323.350 62.333 L 327.849 62.333 327.799 51.359 C 327.764 43.579,327.696 40.316,327.563 40.150 C 327.461 40.022,327.326 39.635,327.264 39.292 C 327.202 38.948,327.089 38.667,327.013 38.667 C 326.937 38.667,326.830 38.441,326.775 38.165 C 326.602 37.302,324.651 35.000,324.091 35.000 C 323.949 35.000,323.833 34.927,323.833 34.837 C 323.833 34.523,322.248 33.955,321.168 33.882 C 320.572 33.842,319.910 33.724,319.697 33.621 C 319.430 33.490,319.277 33.486,319.197 33.607 C 319.135 33.704,318.521 33.833,317.833 33.895 C 316.659 34.001,314.576 34.811,313.934 35.411 C 313.833 35.506,313.414 35.808,313.002 36.083 C 312.285 36.563,311.764 36.980,310.866 37.792 C 310.343 38.265,310.400 38.284,310.000 37.500 C 309.813 37.133,309.586 36.833,309.497 36.833 C 309.407 36.833,309.333 36.752,309.333 36.652 C 309.333 36.387,308.137 35.167,307.877 35.167 C 307.756 35.167,307.615 35.059,307.564 34.927 C 307.514 34.795,307.253 34.639,306.986 34.580 C 306.719 34.522,306.500 34.417,306.500 34.349 C 306.500 34.174,304.942 33.833,304.143 33.833 C 303.777 33.833,303.343 33.761,303.178 33.673 C 303.012 33.584,302.827 33.562,302.765 33.624 M250.750 34.320 C 250.567 34.392,250.011 34.504,249.515 34.569 C 249.019 34.633,248.459 34.794,248.269 34.926 C 248.080 35.058,247.824 35.167,247.700 35.167 C 247.393 35.167,245.167 36.501,245.167 36.686 C 245.167 36.767,245.085 36.833,244.985 36.833 C 244.885 36.833,244.491 37.101,244.110 37.427 L 243.417 38.021 243.369 36.258 L 243.322 34.495 238.703 34.539 L 234.083 34.583 234.041 48.406 C 234.007 59.354,234.042 62.257,234.207 62.362 C 234.322 62.435,236.422 62.496,238.874 62.497 L 243.331 62.500 243.374 53.292 L 243.417 44.083 243.792 44.030 C 243.998 44.001,244.167 43.914,244.167 43.836 C 244.167 43.759,244.485 43.643,244.875 43.578 C 245.265 43.512,245.623 43.397,245.672 43.321 C 245.720 43.245,246.470 43.095,247.338 42.989 C 248.813 42.808,249.946 42.834,252.230 43.102 L 253.167 43.213 253.167 38.897 L 253.167 34.581 252.503 34.374 C 251.757 34.141,251.241 34.125,250.750 34.320 M142.093 40.020 C 142.500 40.122,142.833 40.272,142.833 40.353 C 142.833 40.434,142.917 40.500,143.018 40.500 C 143.277 40.500,143.994 41.205,143.997 41.464 C 143.999 41.581,144.109 41.719,144.242 41.770 C 144.376 41.821,144.534 42.193,144.595 42.600 C 144.655 43.006,144.771 43.378,144.853 43.429 C 144.934 43.479,145.000 43.778,145.000 44.093 L 145.000 44.667 140.083 44.667 L 135.167 44.667 135.167 44.167 C 135.167 43.892,135.226 43.667,135.299 43.667 C 135.371 43.667,135.522 43.325,135.634 42.908 C 135.745 42.490,135.930 42.039,136.043 41.904 C 136.683 41.148,137.394 40.500,137.586 40.500 C 137.707 40.500,137.834 40.416,137.868 40.313 C 138.009 39.890,140.806 39.696,142.093 40.020 M186.926 40.020 C 187.333 40.122,187.667 40.272,187.667 40.353 C 187.667 40.434,187.752 40.500,187.856 40.500 C 188.074 40.500,188.833 41.277,188.833 41.500 C 188.833 41.583,188.934 41.710,189.057 41.783 C 189.322 41.941,189.667 43.237,189.667 44.074 L 189.667 44.667 184.833 44.667 L 180.000 44.667 180.000 44.283 C 180.000 44.072,180.062 43.829,180.139 43.742 C 180.215 43.655,180.371 43.255,180.485 42.854 C 180.710 42.063,180.811 41.908,181.620 41.112 C 182.481 40.264,182.622 40.172,183.286 40.015 C 184.196 39.801,186.066 39.803,186.926 40.020 M216.901 40.792 C 216.969 40.860,217.451 40.992,217.971 41.083 L 218.917 41.250 218.960 47.229 C 219.007 53.649,218.984 53.829,218.099 53.834 C 217.999 53.835,217.692 53.954,217.417 54.099 C 217.142 54.243,216.523 54.403,216.042 54.454 C 215.560 54.505,215.167 54.611,215.167 54.690 C 215.167 54.769,214.942 54.833,214.667 54.833 C 214.392 54.833,214.167 54.768,214.167 54.688 C 214.167 54.609,213.834 54.506,213.426 54.460 C 213.019 54.414,212.569 54.259,212.425 54.116 C 212.282 53.972,212.015 53.808,211.832 53.750 C 211.650 53.692,211.500 53.592,211.500 53.529 C 211.500 53.465,211.315 53.214,211.089 52.970 C 210.863 52.726,210.589 52.165,210.479 51.722 C 210.369 51.279,210.208 50.870,210.121 50.812 C 209.921 50.679,209.922 45.821,210.123 45.684 C 210.204 45.629,210.365 45.152,210.481 44.625 C 210.596 44.098,210.760 43.667,210.845 43.667 C 210.930 43.667,211.000 43.593,211.000 43.502 C 211.000 43.155,211.938 42.009,212.375 41.822 C 212.627 41.714,212.833 41.566,212.833 41.492 C 212.833 41.418,213.265 41.265,213.792 41.152 C 214.319 41.039,214.862 40.886,215.000 40.812 C 215.317 40.641,216.737 40.626,216.901 40.792 M271.167 52.230 L 271.167 54.794 270.625 55.200 C 269.950 55.707,268.654 56.333,268.281 56.333 C 268.126 56.333,268.000 56.408,268.000 56.500 C 268.000 56.595,267.500 56.667,266.833 56.667 C 266.192 56.667,265.667 56.601,265.667 56.521 C 265.667 56.441,265.380 56.330,265.029 56.274 C 263.597 56.045,262.531 53.250,263.461 52.163 C 264.263 51.226,264.518 51.016,265.098 50.819 C 265.457 50.697,265.836 50.535,265.941 50.459 C 266.046 50.384,266.514 50.276,266.982 50.221 C 267.450 50.166,267.833 50.059,267.833 49.985 C 267.833 49.864,268.314 49.813,270.542 49.699 L 271.167 49.667 271.167 52.230 " stroke="none" fill="#fbfbfc" fill-rule="evenodd"></path><path id="path2" d="M72.250 24.833 C 73.163 25.750,73.948 26.500,73.994 26.500 C 74.040 26.500,73.330 25.750,72.417 24.833 C 71.503 23.917,70.719 23.167,70.673 23.167 C 70.627 23.167,71.337 23.917,72.250 24.833 M26.991 25.958 L 26.417 26.583 27.042 26.009 C 27.623 25.474,27.743 25.333,27.616 25.333 C 27.588 25.333,27.307 25.615,26.991 25.958 M60.833 37.553 C 60.696 37.680,58.408 39.159,55.750 40.839 C 53.092 42.520,50.729 44.018,50.500 44.169 C 49.334 44.936,45.832 47.157,45.376 47.418 C 45.215 47.510,44.558 47.931,43.917 48.352 C 42.409 49.343,41.809 49.639,41.500 49.543 C 41.362 49.500,41.417 49.588,41.620 49.739 C 41.824 49.889,42.071 50.328,42.170 50.714 C 42.532 52.128,43.035 53.763,43.264 54.275 C 43.394 54.564,43.500 54.914,43.500 55.052 C 43.500 55.190,43.645 55.704,43.822 56.194 C 43.999 56.683,44.317 57.667,44.529 58.381 C 45.292 60.955,45.717 61.033,47.843 58.991 C 50.304 56.626,51.305 55.797,51.535 55.929 C 52.059 56.232,50.999 55.381,48.092 53.167 C 46.541 51.985,46.465 51.850,47.081 51.365 C 47.309 51.186,48.078 50.515,48.789 49.874 C 50.330 48.488,53.518 45.635,54.322 44.923 C 54.636 44.645,55.386 43.959,55.989 43.399 C 56.591 42.839,57.833 41.722,58.750 40.917 C 61.654 38.366,61.856 38.159,61.801 37.774 C 61.740 37.348,61.190 37.222,60.833 37.553 M18.899 46.917 C 18.899 48.200,18.926 48.703,18.957 48.034 C 18.989 47.366,18.989 46.316,18.957 45.701 C 18.925 45.086,18.899 45.633,18.899 46.917 M81.555 46.917 C 81.555 47.558,81.586 47.800,81.622 47.455 C 81.658 47.109,81.657 46.584,81.620 46.288 C 81.583 45.992,81.554 46.275,81.555 46.917 M80.938 52.688 C 80.799 53.382,80.933 53.517,81.083 52.833 C 81.147 52.545,81.164 52.275,81.121 52.232 C 81.079 52.190,80.996 52.395,80.938 52.688 M19.367 52.583 C 19.367 52.767,19.427 53.104,19.500 53.333 C 19.606 53.663,19.633 53.681,19.633 53.417 C 19.633 53.233,19.573 52.896,19.500 52.667 C 19.394 52.337,19.367 52.319,19.367 52.583 M62.583 59.000 C 62.520 59.288,62.503 59.559,62.545 59.601 C 62.588 59.643,62.671 59.439,62.729 59.146 C 62.868 58.451,62.733 58.316,62.583 59.000 M61.761 61.458 C 61.401 61.919,61.372 61.996,61.651 61.752 C 61.986 61.460,62.426 60.833,62.298 60.833 C 62.271 60.833,62.030 61.115,61.761 61.458 M25.481 66.140 C 25.666 66.400,25.950 66.719,26.111 66.848 C 26.272 66.977,26.150 66.765,25.840 66.375 C 25.205 65.575,24.969 65.421,25.481 66.140 M73.406 67.875 L 72.917 68.417 73.458 67.927 C 73.756 67.658,74.000 67.414,74.000 67.385 C 74.000 67.257,73.862 67.370,73.406 67.875 M71.662 69.625 L 70.583 70.750 71.708 69.671 C 72.327 69.078,72.833 68.572,72.833 68.546 C 72.833 68.424,72.664 68.580,71.662 69.625 M57.917 77.167 C 57.707 77.257,57.676 77.310,57.833 77.310 C 57.971 77.310,58.233 77.245,58.417 77.167 C 58.627 77.076,58.658 77.023,58.500 77.023 C 58.362 77.023,58.100 77.088,57.917 77.167 " stroke="none" fill="#cce4f4" fill-rule="evenodd"></path><path id="path3" d="M51.542 15.782 C 51.702 15.823,51.965 15.823,52.125 15.782 C 52.285 15.740,52.154 15.705,51.833 15.705 C 51.512 15.705,51.381 15.740,51.542 15.782 M67.875 32.917 C 67.877 33.283,67.911 33.414,67.951 33.206 C 67.991 32.999,67.990 32.699,67.948 32.540 C 67.906 32.380,67.874 32.550,67.875 32.917 M81.375 45.250 C 81.377 45.617,81.411 45.747,81.451 45.540 C 81.491 45.332,81.490 45.032,81.448 44.873 C 81.406 44.714,81.374 44.883,81.375 45.250 M81.375 48.583 C 81.377 48.950,81.411 49.080,81.451 48.873 C 81.491 48.666,81.490 48.366,81.448 48.206 C 81.406 48.047,81.374 48.217,81.375 48.583 M19.039 49.000 C 19.039 49.321,19.073 49.452,19.115 49.292 C 19.157 49.131,19.157 48.869,19.115 48.708 C 19.073 48.548,19.039 48.679,19.039 49.000 M41.939 50.417 C 42.114 51.210,42.353 51.686,42.232 51.000 C 42.175 50.679,42.061 50.304,41.979 50.167 C 41.881 50.003,41.867 50.090,41.939 50.417 M43.187 54.504 C 43.439 55.250,43.581 55.395,43.428 54.750 C 43.363 54.475,43.238 54.177,43.150 54.087 C 43.063 53.998,43.079 54.185,43.187 54.504 M43.693 56.083 C 43.692 56.175,43.793 56.512,43.917 56.833 C 44.040 57.154,44.144 57.304,44.146 57.167 C 44.149 57.029,44.049 56.692,43.923 56.417 C 43.797 56.142,43.693 55.992,43.693 56.083 M49.110 57.768 C 48.483 58.368,48.000 58.889,48.036 58.925 C 48.072 58.961,48.621 58.468,49.255 57.829 C 50.709 56.364,50.618 56.326,49.110 57.768 M44.357 58.167 C 44.357 58.304,44.421 58.567,44.500 58.750 C 44.590 58.960,44.643 58.991,44.643 58.833 C 44.643 58.696,44.579 58.433,44.500 58.250 C 44.410 58.040,44.357 58.009,44.357 58.167 M44.924 59.833 C 45.343 60.658,45.851 60.857,46.426 60.422 C 46.718 60.201,46.695 60.197,46.193 60.380 C 45.667 60.572,45.613 60.556,45.216 60.083 C 44.986 59.808,44.854 59.696,44.924 59.833 M28.083 69.000 C 28.535 69.458,28.942 69.833,28.987 69.833 C 29.033 69.833,28.701 69.458,28.250 69.000 C 27.799 68.542,27.392 68.167,27.346 68.167 C 27.300 68.167,27.632 68.542,28.083 69.000 M48.375 78.115 C 48.535 78.157,48.798 78.157,48.958 78.115 C 49.119 78.073,48.987 78.039,48.667 78.039 C 48.346 78.039,48.215 78.073,48.375 78.115 M51.542 78.115 C 51.702 78.157,51.965 78.157,52.125 78.115 C 52.285 78.073,52.154 78.039,51.833 78.039 C 51.512 78.039,51.381 78.073,51.542 78.115 " stroke="none" fill="#a4cced" fill-rule="evenodd"></path><path id="path4" d="M48.167 15.837 C 47.663 15.900,48.150 15.916,49.250 15.872 C 50.350 15.828,51.281 15.764,51.319 15.729 C 51.427 15.633,49.195 15.709,48.167 15.837 M51.961 15.954 C 52.261 15.991,52.711 15.990,52.961 15.952 C 53.212 15.914,52.967 15.884,52.417 15.885 C 51.867 15.886,51.662 15.917,51.961 15.954 M56.333 16.500 C 56.903 16.683,57.341 16.683,56.917 16.500 C 56.733 16.421,56.433 16.359,56.250 16.362 C 55.982 16.366,55.998 16.393,56.333 16.500 M28.163 24.958 L 26.750 26.417 28.208 25.004 C 29.010 24.227,29.667 23.570,29.667 23.545 C 29.667 23.424,29.475 23.604,28.163 24.958 M72.167 24.917 C 72.665 25.421,73.109 25.833,73.155 25.833 C 73.201 25.833,72.831 25.421,72.333 24.917 C 71.835 24.412,71.391 24.000,71.345 24.000 C 71.299 24.000,71.669 24.412,72.167 24.917 M74.231 27.216 C 74.584 27.647,74.908 28.000,74.951 28.000 C 75.064 28.000,74.009 26.692,73.782 26.552 C 73.676 26.486,73.878 26.785,74.231 27.216 M25.167 28.333 C 24.971 28.608,24.848 28.833,24.894 28.833 C 24.940 28.833,25.138 28.608,25.333 28.333 C 25.529 28.058,25.652 27.833,25.606 27.833 C 25.560 27.833,25.362 28.058,25.167 28.333 M65.868 31.642 C 65.747 31.718,66.051 31.746,66.553 31.704 C 67.354 31.638,67.485 31.673,67.727 32.018 C 67.877 32.232,68.000 32.327,68.000 32.230 C 68.000 31.661,66.493 31.246,65.868 31.642 M77.833 32.564 C 77.833 32.743,78.329 33.667,78.425 33.667 C 78.471 33.667,78.385 33.423,78.233 33.125 C 77.924 32.517,77.833 32.390,77.833 32.564 M67.856 33.833 C 67.841 34.063,67.790 34.438,67.743 34.667 L 67.657 35.083 67.836 34.673 C 67.935 34.447,67.986 34.072,67.949 33.840 L 67.883 33.417 67.856 33.833 M67.250 37.333 C 67.186 37.712,67.169 38.057,67.211 38.100 C 67.254 38.143,67.339 37.865,67.400 37.483 C 67.461 37.101,67.479 36.756,67.439 36.717 C 67.399 36.677,67.314 36.954,67.250 37.333 M20.528 37.325 C 20.430 37.605,20.386 37.833,20.429 37.833 C 20.542 37.833,20.856 36.968,20.774 36.885 C 20.736 36.847,20.625 37.045,20.528 37.325 M19.853 39.695 C 19.842 39.848,19.790 40.110,19.737 40.278 C 19.647 40.567,19.651 40.568,19.832 40.286 C 19.937 40.123,19.989 39.861,19.947 39.703 C 19.879 39.445,19.870 39.444,19.853 39.695 M80.503 39.931 C 80.504 40.106,80.581 40.362,80.674 40.500 C 80.798 40.683,80.813 40.615,80.732 40.250 C 80.595 39.637,80.499 39.504,80.503 39.931 M19.372 42.333 C 19.372 42.654,19.406 42.785,19.448 42.625 C 19.490 42.465,19.490 42.202,19.448 42.042 C 19.406 41.881,19.372 42.012,19.372 42.333 M37.875 42.339 C 37.317 42.563,37.421 42.677,38.000 42.475 C 38.275 42.379,38.500 42.271,38.500 42.234 C 38.500 42.135,38.297 42.169,37.875 42.339 M81.214 44.083 C 81.216 44.542,81.248 44.709,81.286 44.456 C 81.325 44.203,81.324 43.828,81.284 43.623 C 81.244 43.418,81.213 43.625,81.214 44.083 M19.061 46.917 C 19.061 47.833,19.089 48.187,19.123 47.703 C 19.157 47.218,19.156 46.468,19.122 46.036 C 19.088 45.604,19.060 46.000,19.061 46.917 M81.388 46.917 C 81.389 47.558,81.419 47.800,81.455 47.455 C 81.491 47.109,81.490 46.584,81.454 46.288 C 81.417 45.992,81.387 46.275,81.388 46.917 M65.426 46.593 C 65.363 46.927,65.345 47.234,65.386 47.275 C 65.427 47.316,65.511 47.075,65.574 46.741 C 65.637 46.406,65.655 46.099,65.614 46.059 C 65.573 46.018,65.489 46.258,65.426 46.593 M36.750 48.256 C 37.025 48.382,37.362 48.483,37.500 48.480 C 37.637 48.477,37.487 48.374,37.167 48.250 C 36.406 47.957,36.106 47.961,36.750 48.256 M38.500 48.805 C 38.637 48.890,38.938 49.010,39.167 49.071 C 39.456 49.149,39.507 49.135,39.333 49.028 C 39.196 48.943,38.896 48.824,38.667 48.762 C 38.377 48.685,38.326 48.698,38.500 48.805 M81.214 49.750 C 81.216 50.208,81.248 50.376,81.286 50.123 C 81.325 49.869,81.324 49.494,81.284 49.289 C 81.244 49.084,81.213 49.292,81.214 49.750 M19.372 51.500 C 19.372 51.821,19.406 51.952,19.448 51.792 C 19.490 51.631,19.490 51.369,19.448 51.208 C 19.406 51.048,19.372 51.179,19.372 51.500 M42.020 51.167 C 42.017 51.304,42.118 51.642,42.244 51.917 C 42.539 52.560,42.543 52.261,42.250 51.500 C 42.126 51.179,42.023 51.029,42.020 51.167 M19.768 53.750 C 19.905 54.363,20.001 54.496,19.997 54.069 C 19.996 53.894,19.919 53.637,19.826 53.500 C 19.702 53.317,19.687 53.385,19.768 53.750 M80.438 54.188 C 80.299 54.882,80.433 55.017,80.583 54.333 C 80.647 54.045,80.664 53.775,80.621 53.732 C 80.579 53.690,80.496 53.895,80.438 54.188 M43.187 54.833 C 43.184 54.971,43.285 55.308,43.411 55.583 C 43.705 56.227,43.710 55.928,43.417 55.167 C 43.293 54.846,43.190 54.696,43.187 54.833 M50.738 56.393 C 50.249 56.899,47.898 59.119,46.962 59.960 C 46.529 60.348,46.220 60.667,46.277 60.667 C 46.391 60.667,47.102 60.029,49.659 57.633 C 50.618 56.735,51.330 56.008,51.243 56.018 C 51.155 56.027,50.928 56.196,50.738 56.393 M43.854 57.000 C 43.851 57.137,43.951 57.475,44.077 57.750 C 44.372 58.394,44.376 58.094,44.083 57.333 C 43.960 57.012,43.856 56.862,43.854 57.000 M62.938 58.188 C 62.799 58.882,62.933 59.017,63.083 58.333 C 63.147 58.045,63.164 57.775,63.121 57.732 C 63.079 57.690,62.996 57.895,62.938 58.188 M44.514 59.133 C 44.494 59.452,44.932 60.239,45.281 60.509 C 45.567 60.732,45.569 60.727,45.307 60.414 C 45.155 60.232,44.917 59.821,44.779 59.500 C 44.640 59.179,44.521 59.014,44.514 59.133 M62.519 60.195 C 62.509 60.348,62.457 60.610,62.404 60.778 C 62.313 61.067,62.318 61.068,62.499 60.786 C 62.603 60.623,62.655 60.361,62.614 60.203 C 62.546 59.945,62.537 59.944,62.519 60.195 M22.917 62.000 C 23.059 62.275,23.213 62.500,23.259 62.500 C 23.304 62.500,23.226 62.275,23.083 62.000 C 22.941 61.725,22.787 61.500,22.741 61.500 C 22.696 61.500,22.774 61.725,22.917 62.000 M59.407 62.071 C 59.585 62.215,59.885 62.327,60.074 62.319 C 60.349 62.308,60.329 62.278,59.971 62.170 C 59.726 62.096,59.426 61.985,59.305 61.922 C 59.183 61.860,59.229 61.927,59.407 62.071 M61.083 62.089 C 60.808 62.215,60.700 62.322,60.843 62.326 C 60.986 62.330,61.249 62.223,61.426 62.089 C 61.822 61.790,61.737 61.790,61.083 62.089 M28.167 68.917 C 28.942 69.696,29.613 70.333,29.659 70.333 C 29.705 70.333,29.108 69.696,28.333 68.917 C 27.558 68.137,26.887 67.500,26.841 67.500 C 26.795 67.500,27.392 68.137,28.167 68.917 M72.412 68.708 L 71.250 69.917 72.458 68.754 C 73.581 67.675,73.743 67.500,73.621 67.500 C 73.595 67.500,73.051 68.044,72.412 68.708 M38.000 75.583 C 38.229 75.714,38.492 75.822,38.583 75.822 C 38.675 75.822,38.563 75.714,38.333 75.583 C 38.104 75.452,37.842 75.345,37.750 75.345 C 37.658 75.345,37.771 75.452,38.000 75.583 M59.083 76.667 C 58.873 76.757,58.842 76.810,59.000 76.810 C 59.137 76.810,59.400 76.745,59.583 76.667 C 59.793 76.576,59.824 76.523,59.667 76.523 C 59.529 76.523,59.267 76.588,59.083 76.667 M43.500 77.333 C 44.070 77.516,44.508 77.516,44.083 77.333 C 43.900 77.255,43.600 77.192,43.417 77.195 C 43.149 77.199,43.165 77.226,43.500 77.333 M56.333 77.333 C 56.003 77.439,55.986 77.467,56.250 77.467 C 56.433 77.467,56.771 77.407,57.000 77.333 C 57.330 77.228,57.347 77.200,57.083 77.200 C 56.900 77.200,56.563 77.260,56.333 77.333 M48.590 78.039 C 49.510 78.112,51.010 78.112,51.923 78.039 C 53.381 77.923,53.176 77.907,50.250 77.907 C 47.313 77.907,47.116 77.923,48.590 78.039 " stroke="none" fill="#7cbbe6" fill-rule="evenodd"></path></g></svg>